<?xml version="1.0" encoding="UTF-8"?>
<!--Generator: Apple Native CoreSVG 149-->
<!DOCTYPE svg
PUBLIC "-//W3C//DTD SVG 1.1//EN"
       "http://www.w3.org/Graphics/SVG/1.1/DTD/svg11.dtd">
<svg version="1.1" xmlns="http://www.w3.org/2000/svg" xmlns:xlink="http://www.w3.org/1999/xlink" width="3300" height="2200">
 <!--glyph: "", point size: 100.0, font version: "17.0d9e1", template writer version: "59"-->
 <g id="Notes">
  <rect height="2200" id="artboard" style="fill:white;opacity:1" width="3300" x="0" y="0"/>
  <line style="fill:none;stroke:black;opacity:1;stroke-width:0.5;" x1="263" x2="3036" y1="292" y2="292"/>
  <text style="stroke:none;fill:black;font-family:sans-serif;font-size:13;font-weight:bold;" transform="matrix(1 0 0 1 263 322)">Weight/Scale Variations</text>
  <text style="stroke:none;fill:black;font-family:sans-serif;font-size:13;text-anchor:middle;" transform="matrix(1 0 0 1 559.711 322)">Ultralight</text>
  <text style="stroke:none;fill:black;font-family:sans-serif;font-size:13;text-anchor:middle;" transform="matrix(1 0 0 1 856.422 322)">Thin</text>
  <text style="stroke:none;fill:black;font-family:sans-serif;font-size:13;text-anchor:middle;" transform="matrix(1 0 0 1 1153.13 322)">Light</text>
  <text style="stroke:none;fill:black;font-family:sans-serif;font-size:13;text-anchor:middle;" transform="matrix(1 0 0 1 1449.84 322)">Regular</text>
  <text style="stroke:none;fill:black;font-family:sans-serif;font-size:13;text-anchor:middle;" transform="matrix(1 0 0 1 1746.56 322)">Medium</text>
  <text style="stroke:none;fill:black;font-family:sans-serif;font-size:13;text-anchor:middle;" transform="matrix(1 0 0 1 2043.27 322)">Semibold</text>
  <text style="stroke:none;fill:black;font-family:sans-serif;font-size:13;text-anchor:middle;" transform="matrix(1 0 0 1 2339.98 322)">Bold</text>
  <text style="stroke:none;fill:black;font-family:sans-serif;font-size:13;text-anchor:middle;" transform="matrix(1 0 0 1 2636.69 322)">Heavy</text>
  <text style="stroke:none;fill:black;font-family:sans-serif;font-size:13;text-anchor:middle;" transform="matrix(1 0 0 1 2933.4 322)">Black</text>
  <line style="fill:none;stroke:black;opacity:1;stroke-width:0.5;" x1="263" x2="3036" y1="1903" y2="1903"/>
  <g transform="matrix(1 0 0 1 263 1933)">
   <path d="M9.24805 0.830078Q10.8691 0.830078 12.2949 0.214844Q13.7207-0.400391 14.8096-1.49414Q15.8984-2.58789 16.5186-4.01367Q17.1387-5.43945 17.1387-7.05078Q17.1387-8.66211 16.5186-10.0879Q15.8984-11.5137 14.8047-12.6074Q13.7109-13.7012 12.2852-14.3164Q10.8594-14.9316 9.23828-14.9316Q7.62695-14.9316 6.20117-14.3164Q4.77539-13.7012 3.69141-12.6074Q2.60742-11.5137 1.9873-10.0879Q1.36719-8.66211 1.36719-7.05078Q1.36719-5.43945 1.9873-4.01367Q2.60742-2.58789 3.69629-1.49414Q4.78516-0.400391 6.21094 0.214844Q7.63672 0.830078 9.24805 0.830078ZM9.24805-0.654297Q7.91992-0.654297 6.7627-1.14746Q5.60547-1.64062 4.73145-2.51953Q3.85742-3.39844 3.36426-4.56055Q2.87109-5.72266 2.87109-7.05078Q2.87109-8.37891 3.35938-9.54102Q3.84766-10.7031 4.72168-11.582Q5.5957-12.4609 6.75293-12.9541Q7.91016-13.4473 9.23828-13.4473Q10.5762-13.4473 11.7334-12.9541Q12.8906-12.4609 13.7695-11.582Q14.6484-10.7031 15.1465-9.54102Q15.6445-8.37891 15.6445-7.05078Q15.6445-5.72266 15.1514-4.56055Q14.6582-3.39844 13.7842-2.51953Q12.9102-1.64062 11.748-1.14746Q10.5859-0.654297 9.24805-0.654297ZM5.83984-7.04102Q5.83984-6.71875 6.04492-6.51855Q6.25-6.31836 6.5918-6.31836L8.50586-6.31836L8.50586-4.39453Q8.50586-4.0625 8.70605-3.85742Q8.90625-3.65234 9.22852-3.65234Q9.56055-3.65234 9.76562-3.85742Q9.9707-4.0625 9.9707-4.39453L9.9707-6.31836L11.8945-6.31836Q12.2266-6.31836 12.4316-6.51855Q12.6367-6.71875 12.6367-7.04102Q12.6367-7.37305 12.4316-7.57812Q12.2266-7.7832 11.8945-7.7832L9.9707-7.7832L9.9707-9.69727Q9.9707-10.0391 9.76562-10.2441Q9.56055-10.4492 9.22852-10.4492Q8.90625-10.4492 8.70605-10.2441Q8.50586-10.0391 8.50586-9.69727L8.50586-7.7832L6.5918-7.7832Q6.25-7.7832 6.04492-7.57812Q5.83984-7.37305 5.83984-7.04102Z"/>
  </g>
  <g transform="matrix(1 0 0 1 281.867 1933)">
   <path d="M11.709 2.91016Q13.75 2.91016 15.5518 2.12891Q17.3535 1.34766 18.7305-0.0292969Q20.1074-1.40625 20.8887-3.20801Q21.6699-5.00977 21.6699-7.05078Q21.6699-9.0918 20.8887-10.8936Q20.1074-12.6953 18.7305-14.0723Q17.3535-15.4492 15.5469-16.2305Q13.7402-17.0117 11.6992-17.0117Q9.6582-17.0117 7.85645-16.2305Q6.05469-15.4492 4.68262-14.0723Q3.31055-12.6953 2.5293-10.8936Q1.74805-9.0918 1.74805-7.05078Q1.74805-5.00977 2.5293-3.20801Q3.31055-1.40625 4.6875-0.0292969Q6.06445 1.34766 7.86621 2.12891Q9.66797 2.91016 11.709 2.91016ZM11.709 1.25Q9.98047 1.25 8.47656 0.605469Q6.97266-0.0390625 5.83496-1.17676Q4.69727-2.31445 4.05762-3.81836Q3.41797-5.32227 3.41797-7.05078Q3.41797-8.7793 4.05762-10.2832Q4.69727-11.7871 5.83008-12.9297Q6.96289-14.0723 8.4668-14.7119Q9.9707-15.3516 11.6992-15.3516Q13.4277-15.3516 14.9316-14.7119Q16.4355-14.0723 17.5781-12.9297Q18.7207-11.7871 19.3652-10.2832Q20.0098-8.7793 20.0098-7.05078Q20.0098-5.32227 19.3701-3.81836Q18.7305-2.31445 17.5928-1.17676Q16.4551-0.0390625 14.9463 0.605469Q13.4375 1.25 11.709 1.25ZM7.39258-7.04102Q7.39258-6.68945 7.62695-6.46484Q7.86133-6.24023 8.23242-6.24023L10.8789-6.24023L10.8789-3.57422Q10.8789-3.21289 11.1035-2.9834Q11.3281-2.75391 11.6797-2.75391Q12.0508-2.75391 12.2852-2.9834Q12.5195-3.21289 12.5195-3.57422L12.5195-6.24023L15.1758-6.24023Q15.5371-6.24023 15.7715-6.46484Q16.0059-6.68945 16.0059-7.04102Q16.0059-7.41211 15.7715-7.6416Q15.5371-7.87109 15.1758-7.87109L12.5195-7.87109L12.5195-10.5176Q12.5195-10.8984 12.2852-11.1279Q12.0508-11.3574 11.6797-11.3574Q11.3281-11.3574 11.1035-11.1279Q10.8789-10.8984 10.8789-10.5176L10.8789-7.87109L8.23242-7.87109Q7.85156-7.87109 7.62207-7.6416Q7.39258-7.41211 7.39258-7.04102Z"/>
  </g>
  <g transform="matrix(1 0 0 1 305.646 1933)">
   <path d="M14.9707 5.66406Q17.0605 5.66406 18.96 5.01465Q20.8594 4.36523 22.4512 3.19336Q24.043 2.02148 25.2197 0.429688Q26.3965-1.16211 27.0459-3.06641Q27.6953-4.9707 27.6953-7.05078Q27.6953-9.14062 27.0459-11.04Q26.3965-12.9395 25.2197-14.5312Q24.043-16.123 22.4512-17.2998Q20.8594-18.4766 18.9551-19.126Q17.0508-19.7754 14.9609-19.7754Q12.8711-19.7754 10.9717-19.126Q9.07227-18.4766 7.48535-17.2998Q5.89844-16.123 4.72168-14.5312Q3.54492-12.9395 2.90039-11.04Q2.25586-9.14062 2.25586-7.05078Q2.25586-4.9707 2.90527-3.06641Q3.55469-1.16211 4.72656 0.429688Q5.89844 2.02148 7.49023 3.19336Q9.08203 4.36523 10.9814 5.01465Q12.8809 5.66406 14.9707 5.66406ZM14.9707 3.84766Q13.1641 3.84766 11.5283 3.2959Q9.89258 2.74414 8.53516 1.74805Q7.17773 0.751953 6.17676-0.610352Q5.17578-1.97266 4.62891-3.6084Q4.08203-5.24414 4.08203-7.05078Q4.08203-8.86719 4.62891-10.5029Q5.17578-12.1387 6.17188-13.501Q7.16797-14.8633 8.52539-15.8594Q9.88281-16.8555 11.5186-17.4023Q13.1543-17.9492 14.9609-17.9492Q16.7773-17.9492 18.4131-17.4023Q20.0488-16.8555 21.4111-15.8594Q22.7734-14.8633 23.7695-13.501Q24.7656-12.1387 25.3174-10.5029Q25.8691-8.86719 25.8691-7.05078Q25.8789-5.24414 25.332-3.6084Q24.7852-1.97266 23.7842-0.610352Q22.7832 0.751953 21.4209 1.74805Q20.0586 2.74414 18.4229 3.2959Q16.7871 3.84766 14.9707 3.84766ZM9.45312-7.04102Q9.45312-6.66016 9.71191-6.41113Q9.9707-6.16211 10.3711-6.16211L14.0625-6.16211L14.0625-2.46094Q14.0625-2.06055 14.3115-1.80664Q14.5605-1.55273 14.9414-1.55273Q15.3516-1.55273 15.6055-1.80664Q15.8594-2.06055 15.8594-2.46094L15.8594-6.16211L19.5605-6.16211Q19.9609-6.16211 20.2148-6.41113Q20.4688-6.66016 20.4688-7.04102Q20.4688-7.45117 20.2148-7.70508Q19.9609-7.95898 19.5605-7.95898L15.8594-7.95898L15.8594-11.6504Q15.8594-12.0605 15.6055-12.3145Q15.3516-12.5684 14.9414-12.5684Q14.5605-12.5684 14.3115-12.3096Q14.0625-12.0508 14.0625-11.6504L14.0625-7.95898L10.3711-7.95898Q9.96094-7.95898 9.70703-7.70508Q9.45312-7.45117 9.45312-7.04102Z"/>
  </g>
  <text style="stroke:none;fill:black;font-family:sans-serif;font-size:13;font-weight:bold;" transform="matrix(1 0 0 1 263 1953)">Design Variations</text>
  <text style="stroke:none;fill:black;font-family:sans-serif;font-size:13;" transform="matrix(1 0 0 1 263 1971)">Symbols are supported in up to nine weights and three scales.</text>
  <text style="stroke:none;fill:black;font-family:sans-serif;font-size:13;" transform="matrix(1 0 0 1 263 1989)">For optimal layout with text and other symbols, vertically align</text>
  <text style="stroke:none;fill:black;font-family:sans-serif;font-size:13;" transform="matrix(1 0 0 1 263 2007)">symbols with the adjacent text.</text>
  <line style="fill:none;stroke:#00AEEF;stroke-width:0.5;opacity:1.0;" x1="776" x2="776" y1="1919" y2="1933"/>
  <g transform="matrix(1 0 0 1 776 1933)">
   <path d="M3.31055 0.15625Q3.70117 0.15625 3.91602-0.00976562Q4.13086-0.175781 4.26758-0.585938L5.52734-4.0332L11.2891-4.0332L12.5488-0.585938Q12.6855-0.175781 12.9004-0.00976562Q13.1152 0.15625 13.4961 0.15625Q13.8867 0.15625 14.1162-0.0585938Q14.3457-0.273438 14.3457-0.644531Q14.3457-0.869141 14.2383-1.17188L9.6582-13.3691Q9.48242-13.8184 9.17969-14.043Q8.87695-14.2676 8.4082-14.2676Q7.5-14.2676 7.17773-13.3789L2.59766-1.16211Q2.49023-0.859375 2.49023-0.634766Q2.49023-0.263672 2.70996-0.0537109Q2.92969 0.15625 3.31055 0.15625ZM6.00586-5.51758L8.37891-12.0898L8.42773-12.0898L10.8008-5.51758Z"/>
  </g>
  <line style="fill:none;stroke:#00AEEF;stroke-width:0.5;opacity:1.0;" x1="793.197" x2="793.197" y1="1919" y2="1933"/>
  <text style="stroke:none;fill:black;font-family:sans-serif;font-size:13;font-weight:bold;" transform="matrix(1 0 0 1 776 1953)">Margins</text>
  <text style="stroke:none;fill:black;font-family:sans-serif;font-size:13;" transform="matrix(1 0 0 1 776 1971)">Leading and trailing margins on the left and right side of each symbol</text>
  <text style="stroke:none;fill:black;font-family:sans-serif;font-size:13;" transform="matrix(1 0 0 1 776 1989)">can be adjusted by modifying the x-location of the margin guidelines.</text>
  <text style="stroke:none;fill:black;font-family:sans-serif;font-size:13;" transform="matrix(1 0 0 1 776 2007)">Modifications are automatically applied proportionally to all</text>
  <text style="stroke:none;fill:black;font-family:sans-serif;font-size:13;" transform="matrix(1 0 0 1 776 2025)">scales and weights.</text>
  <g transform="matrix(1 0 0 1 1289 1933)">
   <path d="M2.8418 1.86523L4.54102 3.57422Q5.18555 4.22852 5.90332 4.17969Q6.62109 4.13086 7.31445 3.35938L18.0078-8.42773L17.041-9.4043L6.42578 2.27539Q6.16211 2.57812 5.89355 2.61719Q5.625 2.65625 5.27344 2.30469L4.10156 1.14258Q3.75 0.791016 3.79395 0.522461Q3.83789 0.253906 4.14062-0.0195312L15.6152-10.8203L14.6387-11.7871L3.04688-0.898438Q2.30469-0.214844 2.25098 0.498047Q2.19727 1.21094 2.8418 1.86523ZM9.25781-16.3281Q8.94531-16.0254 8.90625-15.6348Q8.86719-15.2441 9.04297-14.9512Q9.21875-14.6777 9.55566-14.541Q9.89258-14.4043 10.3809-14.5215Q11.4746-14.7754 12.5977-14.7314Q13.7207-14.6875 14.7949-13.9844L14.209-12.5293Q13.9551-11.9043 14.0674-11.4404Q14.1797-10.9766 14.5801-10.5664L16.875-8.25195Q17.2363-7.88086 17.5781-7.82227Q17.9199-7.76367 18.3398-7.8418L19.4043-8.03711L20.0684-7.36328L20.0293-6.80664Q20-6.43555 20.1221-6.12305Q20.2441-5.81055 20.6055-5.44922L21.3672-4.70703Q21.7285-4.3457 22.1533-4.33105Q22.5781-4.31641 22.9297-4.66797L25.8398-7.58789Q26.1914-7.93945 26.1816-8.35449Q26.1719-8.76953 25.8105-9.13086L25.0391-9.89258Q24.6875-10.2539 24.3799-10.3857Q24.0723-10.5176 23.7109-10.4883L23.1348-10.4395L22.4902-11.0742L22.7344-12.1973Q22.832-12.6172 22.6953-12.9834Q22.5586-13.3496 22.1191-13.7891L19.9219-15.9766Q18.6719-17.2168 17.2607-17.8369Q15.8496-18.457 14.4189-18.4814Q12.9883-18.5059 11.665-17.959Q10.3418-17.4121 9.25781-16.3281ZM10.752-15.957Q11.6602-16.6211 12.7002-16.9043Q13.7402-17.1875 14.8047-17.085Q15.8691-16.9824 16.8701-16.5137Q17.8711-16.0449 18.7012-15.2051L21.1328-12.793Q21.3086-12.6172 21.3525-12.4512Q21.3965-12.2852 21.3379-12.0312L21.0156-10.5469L22.5195-9.0625L23.5059-9.12109Q23.6914-9.13086 23.7891-9.09668Q23.8867-9.0625 24.0332-8.91602L24.6094-8.33984L22.168-5.89844L21.5918-6.47461Q21.4453-6.62109 21.4062-6.71875Q21.3672-6.81641 21.377-7.01172L21.4453-7.98828L19.9512-9.47266L18.4277-9.21875Q18.1836-9.16992 18.042-9.2041Q17.9004-9.23828 17.7148-9.41406L15.7129-11.416Q15.5176-11.5918 15.4932-11.7529Q15.4688-11.9141 15.5859-12.1875L16.4648-14.2773Q15.293-15.3711 13.8281-15.791Q12.3633-16.2109 10.8398-15.7617Q10.7227-15.7324 10.6885-15.8057Q10.6543-15.8789 10.752-15.957Z"/>
  </g>
  <text style="stroke:none;fill:black;font-family:sans-serif;font-size:13;font-weight:bold;" transform="matrix(1 0 0 1 1289 1953)">Exporting</text>
  <text style="stroke:none;fill:black;font-family:sans-serif;font-size:13;" transform="matrix(1 0 0 1 1289 1971)">Symbols should be outlined when exporting to ensure the</text>
  <text style="stroke:none;fill:black;font-family:sans-serif;font-size:13;" transform="matrix(1 0 0 1 1289 1989)">design is preserved when submitting to Xcode.</text>
  <text id="template-version" style="stroke:none;fill:black;font-family:sans-serif;font-size:13;text-anchor:end;" transform="matrix(1 0 0 1 3036 1933)">Template v.2.0</text>
  <text style="stroke:none;fill:black;font-family:sans-serif;font-size:13;text-anchor:end;" transform="matrix(1 0 0 1 3036 1951)">Requires Xcode 13 or greater</text>
  <text id="descriptive-name" style="stroke:none;fill:black;font-family:sans-serif;font-size:13;text-anchor:end;" transform="matrix(1 0 0 1 3036 1969)">Generated from custom.candybarphone</text>
  <text style="stroke:none;fill:black;font-family:sans-serif;font-size:13;text-anchor:end;" transform="matrix(1 0 0 1 3036 1987)">Typeset at 100 points</text>
  <text style="stroke:none;fill:black;font-family:sans-serif;font-size:13;" transform="matrix(1 0 0 1 263 726)">Small</text>
  <text style="stroke:none;fill:black;font-family:sans-serif;font-size:13;" transform="matrix(1 0 0 1 263 1156)">Medium</text>
  <text style="stroke:none;fill:black;font-family:sans-serif;font-size:13;" transform="matrix(1 0 0 1 263 1586)">Large</text>
 </g>
 <g id="Guides">
  <g id="H-reference" style="fill:#27AAE1;stroke:none;" transform="matrix(1 0 0 1 339 696)">
   <path d="M0.976562 0L3.66211 0L29.3457-67.1387L30.0293-67.1387L30.0293-70.459L28.125-70.459ZM11.6699-24.4629L46.9727-24.4629L46.2402-26.709L12.4512-26.709ZM55.127 0L57.7637 0L30.6152-70.459L29.4434-70.459L29.4434-67.1387Z"/>
  </g>
  <line id="Baseline-S" style="fill:none;stroke:#27AAE1;opacity:1;stroke-width:0.5;" x1="263" x2="3036" y1="696" y2="696"/>
  <line id="Capline-S" style="fill:none;stroke:#27AAE1;opacity:1;stroke-width:0.5;" x1="263" x2="3036" y1="625.541" y2="625.541"/>
  <g id="H-reference" style="fill:#27AAE1;stroke:none;" transform="matrix(1 0 0 1 339 1126)">
   <path d="M0.976562 0L3.66211 0L29.3457-67.1387L30.0293-67.1387L30.0293-70.459L28.125-70.459ZM11.6699-24.4629L46.9727-24.4629L46.2402-26.709L12.4512-26.709ZM55.127 0L57.7637 0L30.6152-70.459L29.4434-70.459L29.4434-67.1387Z"/>
  </g>
  <line id="Baseline-M" style="fill:none;stroke:#27AAE1;opacity:1;stroke-width:0.5;" x1="263" x2="3036" y1="1126" y2="1126"/>
  <line id="Capline-M" style="fill:none;stroke:#27AAE1;opacity:1;stroke-width:0.5;" x1="263" x2="3036" y1="1055.54" y2="1055.54"/>
  <g id="H-reference" style="fill:#27AAE1;stroke:none;" transform="matrix(1 0 0 1 339 1556)">
   <path d="M0.976562 0L3.66211 0L29.3457-67.1387L30.0293-67.1387L30.0293-70.459L28.125-70.459ZM11.6699-24.4629L46.9727-24.4629L46.2402-26.709L12.4512-26.709ZM55.127 0L57.7637 0L30.6152-70.459L29.4434-70.459L29.4434-67.1387Z"/>
  </g>
  <line id="Baseline-L" style="fill:none;stroke:#27AAE1;opacity:1;stroke-width:0.5;" x1="263" x2="3036" y1="1556" y2="1556"/>
  <line id="Capline-L" style="fill:none;stroke:#27AAE1;opacity:1;stroke-width:0.5;" x1="263" x2="3036" y1="1485.54" y2="1485.54"/>
  <line id="left-margin" style="fill:none;stroke:#00AEEF;stroke-width:0.5;opacity:1.0;" x1="1407.67" x2="1407.67" y1="1030.78" y2="1150.12"/>
  <line id="right-margin" style="fill:none;stroke:#00AEEF;stroke-width:0.5;opacity:1.0;" x1="1492.02" x2="1492.02" y1="1030.78" y2="1150.12"/>
 </g>
 <g id="Symbols">
  <g id="Black-L" transform="matrix(1 0 0 1 2869.37 1556)">
   <path d="M39.4971 35.2357L88.5621 35.2357Q99.2572 35.2357 105.411 29.1545Q111.565 23.0733 111.565 12.4623L111.565-82.3892Q111.565-93.0002 105.411-99.0814Q99.2572-105.163 88.5621-105.163L39.4971-105.163Q28.8032-105.163 22.6494-99.0814Q16.4957-93.0002 16.4957-82.3892L16.4957 12.4623Q16.4957 23.0733 22.6494 29.1545Q28.8032 35.2357 39.4971 35.2357ZM42.5827 15.2565Q39.7636 15.2565 38.1199 13.6341Q36.4762 12.0118 36.4762 9.27562L36.4762-79.2025Q36.4762-81.9594 38.1199-83.5713Q39.7636-85.1833 42.5827-85.1833L85.4777-85.1833Q88.2968-85.1833 89.9398-83.5421Q91.5829-81.901 91.5829-78.9105L91.5829 9.27562Q91.5829 12.0118 89.9398 13.6341Q88.2968 15.2565 85.4777 15.2565ZM46.5511-41.3425L81.5677-41.3425Q86.4601-41.3425 86.4601-46.1612L86.4601-75.1954Q86.4601-80.014 81.5677-80.014L46.5511-80.014Q41.599-80.014 41.599-75.2539L41.599-46.1028Q41.599-41.3425 46.5511-41.3425ZM46.2443-22.8329L52.5329-22.8329Q55.1362-22.8329 55.1362-25.217L55.1362-31.7236Q55.1362-34.109 52.5329-34.109L46.2443-34.109Q43.8575-34.109 43.8575-31.7236L43.8575-25.217Q43.8575-22.8329 46.2443-22.8329ZM60.7536-22.8329L67.063-22.8329Q69.6664-22.8329 69.6664-25.217L69.6664-31.7236Q69.6664-34.109 67.063-34.109L60.7536-34.109Q58.3902-34.109 58.3902-31.7236L58.3902-25.217Q58.3902-22.8329 60.7536-22.8329ZM75.285-22.8329L81.5932-22.8329Q84.1771-22.8329 84.1771-25.217L84.1771-31.7236Q84.1771-34.109 81.5932-34.109L75.285-34.109Q72.9204-34.109 72.9204-31.7236L72.9204-25.217Q72.9204-22.8329 75.285-22.8329ZM46.2443-7.45851L52.5329-7.45851Q55.1362-7.45851 55.1362-9.84389L55.1362-16.3504Q55.1362-18.7347 52.5329-18.7347L46.2443-18.7347Q43.8575-18.7347 43.8575-16.3504L43.8575-9.84389Q43.8575-7.45851 46.2443-7.45851ZM60.7536-7.45851L67.063-7.45851Q69.6664-7.45851 69.6664-9.84389L69.6664-16.3504Q69.6664-18.7347 67.063-18.7347L60.7536-18.7347Q58.3902-18.7347 58.3902-16.3504L58.3902-9.84389Q58.3902-7.45851 60.7536-7.45851ZM75.285-7.45851L81.5932-7.45851Q84.1771-7.45851 84.1771-9.84389L84.1771-16.3504Q84.1771-18.7347 81.5932-18.7347L75.285-18.7347Q72.9204-18.7347 72.9204-16.3504L72.9204-9.84389Q72.9204-7.45851 75.285-7.45851ZM46.2443 7.91598L52.5329 7.91598Q55.1362 7.91598 55.1362 5.55121L55.1362-0.976069Q55.1362-3.34202 52.5329-3.34202L46.2443-3.34202Q43.8575-3.34202 43.8575-0.976069L43.8575 5.55121Q43.8575 7.91598 46.2443 7.91598ZM60.7536 7.91598L67.063 7.91598Q69.6664 7.91598 69.6664 5.55121L69.6664-0.976069Q69.6664-3.34202 67.063-3.34202L60.7536-3.34202Q58.3902-3.34202 58.3902-0.976069L58.3902 5.55121Q58.3902 7.91598 60.7536 7.91598ZM75.285 7.91598L81.5932 7.91598Q84.1771 7.91598 84.1771 5.55121L84.1771-0.976069Q84.1771-3.34202 81.5932-3.34202L75.285-3.34202Q72.9204-3.34202 72.9204-0.976069L72.9204 5.55121Q72.9204 7.91598 75.285 7.91598Z"/>
  </g>
  <g id="Heavy-L" transform="matrix(1 0 0 1 2575.06 1556)">
   <path d="M38.0584 33.4283L85.2003 33.4283Q95.1782 33.4283 100.974 27.7371Q106.769 22.0459 106.769 12.193L106.769-82.051Q106.769-91.9038 100.974-97.5951Q95.1782-103.286 85.2003-103.286L38.0584-103.286Q28.0866-103.286 22.2911-97.5951Q16.4957-91.9038 16.4957-82.051L16.4957 12.193Q16.4957 22.0459 22.2911 27.7371Q28.0866 33.4283 38.0584 33.4283ZM40.7007 15.9365Q37.5552 15.9365 35.7744 14.1885Q33.9936 12.4405 33.9936 9.41404L33.9936-79.272Q33.9936-82.3282 35.7744-84.0613Q37.5552-85.7944 40.7007-85.7944L82.5641-85.7944Q85.7096-85.7944 87.4874-84.039Q89.2651-82.2836 89.2651-79.0489L89.2651 9.41404Q89.2651 12.4405 87.4874 14.1885Q85.7096 15.9365 82.5641 15.9365ZM44.4614-41.0864L78.848-41.0864Q83.8534-41.0864 83.8534-45.9216L83.8534-75.397Q83.8534-80.2322 78.848-80.2322L44.4614-80.2322Q39.4053-80.2322 39.4053-75.4417L39.4053-45.877Q39.4053-41.0864 44.4614-41.0864ZM43.926-22.5962L50.0844-22.5962Q52.6365-22.5962 52.6365-24.9428L52.6365-31.3007Q52.6365-33.6533 50.0844-33.6533L43.926-33.6533Q41.5673-33.6533 41.5673-31.3007L41.5673-24.9428Q41.5673-22.5962 43.926-22.5962ZM58.3983-22.5962L64.5865-22.5962Q67.1386-22.5962 67.1386-24.9428L67.1386-31.3007Q67.1386-33.6533 64.5865-33.6533L58.3983-33.6533Q56.0815-33.6533 56.0815-31.3007L56.0815-24.9428Q56.0815-22.5962 58.3983-22.5962ZM72.9065-22.5962L79.0887-22.5962Q81.617-22.5962 81.617-24.9428L81.617-31.3007Q81.617-33.6533 79.0887-33.6533L72.9065-33.6533Q70.5836-33.6533 70.5836-31.3007L70.5836-24.9428Q70.5836-22.5962 72.9065-22.5962ZM43.926-7.20992L50.0844-7.20992Q52.6365-7.20992 52.6365-9.56253L52.6365-15.9204Q52.6365-18.267 50.0844-18.267L43.926-18.267Q41.5673-18.267 41.5673-15.9204L41.5673-9.56253Q41.5673-7.20992 43.926-7.20992ZM58.3983-7.20992L64.5865-7.20992Q67.1386-7.20992 67.1386-9.56253L67.1386-15.9204Q67.1386-18.267 64.5865-18.267L58.3983-18.267Q56.0815-18.267 56.0815-15.9204L56.0815-9.56253Q56.0815-7.20992 58.3983-7.20992ZM72.9065-7.20992L79.0887-7.20992Q81.617-7.20992 81.617-9.56253L81.617-15.9204Q81.617-18.267 79.0887-18.267L72.9065-18.267Q70.5836-18.267 70.5836-15.9204L70.5836-9.56253Q70.5836-7.20992 72.9065-7.20992ZM43.926 8.17648L50.0844 8.17648Q52.6365 8.17648 52.6365 5.85355L52.6365-0.534047Q52.6365-2.86294 50.0844-2.86294L43.926-2.86294Q41.5673-2.86294 41.5673-0.534047L41.5673 5.85355Q41.5673 8.17648 43.926 8.17648ZM58.3983 8.17648L64.5865 8.17648Q67.1386 8.17648 67.1386 5.85355L67.1386-0.534047Q67.1386-2.86294 64.5865-2.86294L58.3983-2.86294Q56.0815-2.86294 56.0815-0.534047L56.0815 5.85355Q56.0815 8.17648 58.3983 8.17648ZM72.9065 8.17648L79.0887 8.17648Q81.617 8.17648 81.617 5.85355L81.617-0.534047Q81.617-2.86294 79.0887-2.86294L72.9065-2.86294Q70.5836-2.86294 70.5836-0.534047L70.5836 5.85355Q70.5836 8.17648 72.9065 8.17648Z"/>
  </g>
  <g id="Bold-L" transform="matrix(1 0 0 1 2281.28 1556)">
   <path d="M36.3542 31.2051L81.0396 31.2051Q90.2066 31.2051 95.5594 25.9818Q100.912 20.7584 100.912 11.7536L100.912-81.5345Q100.912-90.5393 95.5594-95.7626Q90.2066-100.986 81.0396-100.986L36.3542-100.986Q27.2014-100.986 21.8485-95.7626Q16.4957-90.5393 16.4957-81.5345L16.4957 11.7536Q16.4957 20.7584 21.8485 25.9818Q27.2014 31.2051 36.3542 31.2051ZM38.4572 16.7836Q34.8574 16.7836 32.8945 14.8648Q30.9315 12.9459 30.9315 9.49405L30.9315-79.2749Q30.9315-82.7638 32.8945-84.6641Q34.8574-86.5644 38.4572-86.5644L78.9508-86.5644Q82.5506-86.5644 84.5064-84.6495Q86.4622-82.7346 86.4622-79.1289L86.4622 9.49405Q86.4622 12.9459 84.5064 14.8648Q82.5506 16.7836 78.9508 16.7836ZM41.9683-40.7366L75.4688-40.7366Q80.6526-40.7366 80.6526-45.6421L80.6526-75.5277Q80.6526-80.4332 75.4688-80.4332L41.9683-80.4332Q36.7412-80.4332 36.7412-75.5569L36.7412-45.6129Q36.7412-40.7366 41.9683-40.7366ZM41.114-22.2883L47.0979-22.2883Q49.5783-22.2883 49.5783-24.5786L49.5783-30.7384Q49.5783-33.0429 47.0979-33.0429L41.114-33.0429Q38.7952-33.0429 38.7952-30.7384L38.7952-24.5786Q38.7952-22.2883 41.114-22.2883ZM55.5391-22.2883L61.5601-22.2883Q64.0404-22.2883 64.0404-24.5786L64.0404-30.7384Q64.0404-33.0429 61.5601-33.0429L55.5391-33.0429Q53.2858-33.0429 53.2858-30.7384L53.2858-24.5786Q53.2858-22.2883 55.5391-22.2883ZM70.0154-22.2883L76.0222-22.2883Q78.4797-22.2883 78.4797-24.5786L78.4797-30.7384Q78.4797-33.0429 76.0222-33.0429L70.0154-33.0429Q67.748-33.0429 67.748-30.7384L67.748-24.5786Q67.748-22.2883 70.0154-22.2883ZM41.114-6.92321L47.0979-6.92321Q49.5783-6.92321 49.5783-9.22765L49.5783-15.3874Q49.5783-17.6777 47.0979-17.6777L41.114-17.6777Q38.7952-17.6777 38.7952-15.3874L38.7952-9.22765Q38.7952-6.92321 41.114-6.92321ZM55.5391-6.92321L61.5601-6.92321Q64.0404-6.92321 64.0404-9.22765L64.0404-15.3874Q64.0404-17.6777 61.5601-17.6777L55.5391-17.6777Q53.2858-17.6777 53.2858-15.3874L53.2858-9.22765Q53.2858-6.92321 55.5391-6.92321ZM70.0154-6.92321L76.0222-6.92321Q78.4797-6.92321 78.4797-9.22765L78.4797-15.3874Q78.4797-17.6777 76.0222-17.6777L70.0154-17.6777Q67.748-17.6777 67.748-15.3874L67.748-9.22765Q67.748-6.92321 70.0154-6.92321ZM41.114 8.44199L47.0979 8.44199Q49.5783 8.44199 49.5783 6.17449L49.5783-0.0223168Q49.5783-2.304 47.0979-2.304L41.114-2.304Q38.7952-2.304 38.7952-0.0223168L38.7952 6.17449Q38.7952 8.44199 41.114 8.44199ZM55.5391 8.44199L61.5601 8.44199Q64.0404 8.44199 64.0404 6.17449L64.0404-0.0223168Q64.0404-2.304 61.5601-2.304L55.5391-2.304Q53.2858-2.304 53.2858-0.0223168L53.2858 6.17449Q53.2858 8.44199 55.5391 8.44199ZM70.0154 8.44199L76.0222 8.44199Q78.4797 8.44199 78.4797 6.17449L78.4797-0.0223168Q78.4797-2.304 76.0222-2.304L70.0154-2.304Q67.748-2.304 67.748-0.0223168L67.748 6.17449Q67.748 8.44199 70.0154 8.44199Z"/>
  </g>
  <g id="Semibold-L" transform="matrix(1 0 0 1 1986.59 1556)">
   <path d="M35.1792 29.6725L78.1713 29.6725Q86.7792 29.6725 91.8269 24.7717Q96.8746 19.8709 96.8746 11.4507L96.8746-81.1784Q96.8746-89.5986 91.8269-94.4994Q86.7792-99.4002 78.1713-99.4002L35.1792-99.4002Q26.5912-99.4002 21.5434-94.4994Q16.4957-89.5986 16.4957-81.1784L16.4957 11.4507Q16.4957 19.8709 21.5434 24.7717Q26.5912 29.6725 35.1792 29.6725ZM36.9106 17.3676Q32.9975 17.3676 30.909 15.331Q28.8205 13.2944 28.8205 9.54921L28.8205-79.2769Q28.8205-83.0641 30.909-85.0796Q32.9975-87.0952 36.9106-87.0952L76.4598-87.0952Q80.3729-87.0952 82.4514-85.0704Q84.5299-83.0455 84.5299-79.184L84.5299 9.54921Q84.5299 13.2944 82.4514 15.331Q80.3729 17.3676 76.4598 17.3676ZM40.2496-40.4954L73.1393-40.4954Q78.4459-40.4954 78.4459-45.4494L78.4459-75.6177Q78.4459-80.5717 73.1393-80.5717L40.2496-80.5717Q34.9045-80.5717 34.9045-75.6363L34.9045-45.4309Q34.9045-40.4954 40.2496-40.4954ZM39.1754-22.0761L45.0391-22.0761Q47.4699-22.0761 47.4699-24.3274L47.4699-30.3508Q47.4699-32.622 45.0391-32.622L39.1754-32.622Q36.8842-32.622 36.8842-30.3508L36.8842-24.3274Q36.8842-22.0761 39.1754-22.0761ZM53.5679-22.0761L59.4737-22.0761Q61.9045-22.0761 61.9045-24.3274L61.9045-30.3508Q61.9045-32.622 59.4737-32.622L53.5679-32.622Q51.3585-32.622 51.3585-30.3508L51.3585-24.3274Q51.3585-22.0761 53.5679-22.0761ZM68.0224-22.0761L73.9083-22.0761Q76.3169-22.0761 76.3169-24.3274L76.3169-30.3508Q76.3169-32.622 73.9083-32.622L68.0224-32.622Q65.7931-32.622 65.7931-30.3508L65.7931-24.3274Q65.7931-22.0761 68.0224-22.0761ZM39.1754-6.72556L45.0391-6.72556Q47.4699-6.72556 47.4699-8.99679L47.4699-15.0201Q47.4699-17.2715 45.0391-17.2715L39.1754-17.2715Q36.8842-17.2715 36.8842-15.0201L36.8842-8.99679Q36.8842-6.72556 39.1754-6.72556ZM53.5679-6.72556L59.4737-6.72556Q61.9045-6.72556 61.9045-8.99679L61.9045-15.0201Q61.9045-17.2715 59.4737-17.2715L53.5679-17.2715Q51.3585-17.2715 51.3585-15.0201L51.3585-8.99679Q51.3585-6.72556 53.5679-6.72556ZM68.0224-6.72556L73.9083-6.72556Q76.3169-6.72556 76.3169-8.99679L76.3169-15.0201Q76.3169-17.2715 73.9083-17.2715L68.0224-17.2715Q65.7931-17.2715 65.7931-15.0201L65.7931-8.99679Q65.7931-6.72556 68.0224-6.72556ZM39.1754 8.62503L45.0391 8.62503Q47.4699 8.62503 47.4699 6.39575L47.4699 0.330467Q47.4699-1.91867 45.0391-1.91867L39.1754-1.91867Q36.8842-1.91867 36.8842 0.330467L36.8842 6.39575Q36.8842 8.62503 39.1754 8.62503ZM53.5679 8.62503L59.4737 8.62503Q61.9045 8.62503 61.9045 6.39575L61.9045 0.330467Q61.9045-1.91867 59.4737-1.91867L53.5679-1.91867Q51.3585-1.91867 51.3585 0.330467L51.3585 6.39575Q51.3585 8.62503 53.5679 8.62503ZM68.0224 8.62503L73.9083 8.62503Q76.3169 8.62503 76.3169 6.39575L76.3169 0.330467Q76.3169-1.91867 73.9083-1.91867L68.0224-1.91867Q65.7931-1.91867 65.7931 0.330467L65.7931 6.39575Q65.7931 8.62503 68.0224 8.62503Z"/>
  </g>
  <g id="Medium-L" transform="matrix(1 0 0 1 1691.41 1556)">
   <path d="M34.2884 28.5103L75.9964 28.5103Q84.1804 28.5103 88.9967 23.8541Q93.8131 19.1979 93.8131 11.221L93.8131-80.9084Q93.8131-88.8853 88.9967-93.5415Q84.1804-98.1977 75.9964-98.1977L34.2884-98.1977Q26.1285-98.1977 21.3121-93.5415Q16.4957-88.8853 16.4957-80.9084L16.4957 11.221Q16.4957 19.1979 21.3121 23.8541Q26.1285 28.5103 34.2884 28.5103ZM35.7379 17.8104Q31.5873 17.8104 29.4036 15.6845Q27.2199 13.5586 27.2199 9.59104L27.2199-79.2784Q27.2199-83.2918 29.4036-85.3947Q31.5873-87.4977 35.7379-87.4977L74.571-87.4977Q78.7216-87.4977 80.8932-85.3895Q83.0648-83.2813 83.0648-79.2259L83.0648 9.59104Q83.0648 13.5586 80.8932 15.6845Q78.7216 17.8104 74.571 17.8104ZM38.9464-40.3126L71.3729-40.3126Q76.7728-40.3126 76.7728-45.3033L76.7728-75.686Q76.7728-80.6768 71.3729-80.6768L38.9464-80.6768Q33.5119-80.6768 33.5119-75.6965L33.5119-45.2928Q33.5119-40.3126 38.9464-40.3126ZM37.7055-21.9151L43.478-21.9151Q45.8713-21.9151 45.8713-24.137L45.8713-30.0568Q45.8713-32.3029 43.478-32.3029L37.7055-32.3029Q35.4352-32.3029 35.4352-30.0568L35.4352-24.137Q35.4352-21.9151 37.7055-21.9151ZM52.0733-21.9151L57.8917-21.9151Q60.285-21.9151 60.285-24.137L60.285-30.0568Q60.285-32.3029 57.8917-32.3029L52.0733-32.3029Q49.8971-32.3029 49.8971-30.0568L49.8971-24.137Q49.8971-21.9151 52.0733-21.9151ZM66.5111-21.9151L72.3054-21.9151Q74.677-21.9151 74.677-24.137L74.677-30.0568Q74.677-32.3029 72.3054-32.3029L66.5111-32.3029Q64.3108-32.3029 64.3108-30.0568L64.3108-24.137Q64.3108-21.9151 66.5111-21.9151ZM37.7055-6.57569L43.478-6.57569Q45.8713-6.57569 45.8713-8.82174L45.8713-14.7415Q45.8713-16.9634 43.478-16.9634L37.7055-16.9634Q35.4352-16.9634 35.4352-14.7415L35.4352-8.82174Q35.4352-6.57569 37.7055-6.57569ZM52.0733-6.57569L57.8917-6.57569Q60.285-6.57569 60.285-8.82174L60.285-14.7415Q60.285-16.9634 57.8917-16.9634L52.0733-16.9634Q49.8971-16.9634 49.8971-14.7415L49.8971-8.82174Q49.8971-6.57569 52.0733-6.57569ZM66.5111-6.57569L72.3054-6.57569Q74.677-6.57569 74.677-8.82174L74.677-14.7415Q74.677-16.9634 72.3054-16.9634L66.5111-16.9634Q64.3108-16.9634 64.3108-14.7415L64.3108-8.82174Q64.3108-6.57569 66.5111-6.57569ZM37.7055 8.76382L43.478 8.76382Q45.8713 8.76382 45.8713 6.56351L45.8713 0.597962Q45.8713-1.6265 43.478-1.6265L37.7055-1.6265Q35.4352-1.6265 35.4352 0.597962L35.4352 6.56351Q35.4352 8.76382 37.7055 8.76382ZM52.0733 8.76382L57.8917 8.76382Q60.285 8.76382 60.285 6.56351L60.285 0.597962Q60.285-1.6265 57.8917-1.6265L52.0733-1.6265Q49.8971-1.6265 49.8971 0.597962L49.8971 6.56351Q49.8971 8.76382 52.0733 8.76382ZM66.5111 8.76382L72.3054 8.76382Q74.677 8.76382 74.677 6.56351L74.677 0.597962Q74.677-1.6265 72.3054-1.6265L66.5111-1.6265Q64.3108-1.6265 64.3108 0.597962L64.3108 6.56351Q64.3108 8.76382 66.5111 8.76382Z"/>
  </g>
  <g id="Regular-L" transform="matrix(1 0 0 1 1396.69 1556)">
   <path d="M33.1264 26.9945L73.1596 26.9945Q80.7906 26.9945 85.3052 22.6573Q89.8198 18.3201 89.8198 10.9214L89.8198-80.5562Q89.8198-87.9549 85.3052-92.2921Q80.7906-96.6293 73.1596-96.6293L33.1264-96.6293Q25.525-96.6293 21.0104-92.2921Q16.4957-87.9549 16.4957-80.5562L16.4957 10.9214Q16.4957 18.3201 21.0104 22.6573Q25.525 26.9945 33.1264 26.9945ZM34.2082 18.3879Q29.7479 18.3879 27.44 16.1456Q25.1321 13.9032 25.1321 9.64559L25.1321-79.2804Q25.1321-83.5888 27.44-85.8057Q29.7479-88.0227 34.2082-88.0227L72.1074-88.0227Q76.5678-88.0227 78.8608-85.8057Q81.1537-83.5888 81.1537-79.2804L81.1537 9.64559Q81.1537 13.9032 78.8608 16.1456Q76.5678 18.3879 72.1074 18.3879ZM37.2465-40.074L69.069-40.074Q74.5904-40.074 74.5904-45.1128L74.5904-75.7751Q74.5904-80.8138 69.069-80.8138L37.2465-80.8138Q31.6955-80.8138 31.6955-75.7751L31.6955-45.1128Q31.6955-40.074 37.2465-40.074ZM35.7882-21.7052L41.4418-21.7052Q43.7862-21.7052 43.7862-23.8887L43.7862-29.6734Q43.7862-31.8866 41.4418-31.8866L35.7882-31.8866Q33.5451-31.8866 33.5451-29.6734L33.5451-23.8887Q33.5451-21.7052 35.7882-21.7052ZM50.1238-21.7052L55.8282-21.7052Q58.1725-21.7052 58.1725-23.8887L58.1725-29.6734Q58.1725-31.8866 55.8282-31.8866L50.1238-31.8866Q47.991-31.8866 47.991-29.6734L47.991-23.8887Q47.991-21.7052 50.1238-21.7052ZM64.54-21.7052L70.2146-21.7052Q72.5379-21.7052 72.5379-23.8887L72.5379-29.6734Q72.5379-31.8866 70.2146-31.8866L64.54-31.8866Q62.3774-31.8866 62.3774-29.6734L62.3774-23.8887Q62.3774-21.7052 64.54-21.7052ZM35.7882-6.3802L41.4418-6.3802Q43.7862-6.3802 43.7862-8.59341L43.7862-14.3781Q43.7862-16.5616 41.4418-16.5616L35.7882-16.5616Q33.5451-16.5616 33.5451-14.3781L33.5451-8.59341Q33.5451-6.3802 35.7882-6.3802ZM50.1238-6.3802L55.8282-6.3802Q58.1725-6.3802 58.1725-8.59341L58.1725-14.3781Q58.1725-16.5616 55.8282-16.5616L50.1238-16.5616Q47.991-16.5616 47.991-14.3781L47.991-8.59341Q47.991-6.3802 50.1238-6.3802ZM64.54-6.3802L70.2146-6.3802Q72.5379-6.3802 72.5379-8.59341L72.5379-14.3781Q72.5379-16.5616 70.2146-16.5616L64.54-16.5616Q62.3774-16.5616 62.3774-14.3781L62.3774-8.59341Q62.3774-6.3802 64.54-6.3802ZM35.7882 8.94485L41.4418 8.94485Q43.7862 8.94485 43.7862 6.78234L43.7862 0.946869Q43.7862-1.24541 41.4418-1.24541L35.7882-1.24541Q33.5451-1.24541 33.5451 0.946869L33.5451 6.78234Q33.5451 8.94485 35.7882 8.94485ZM50.1238 8.94485L55.8282 8.94485Q58.1725 8.94485 58.1725 6.78234L58.1725 0.946869Q58.1725-1.24541 55.8282-1.24541L50.1238-1.24541Q47.991-1.24541 47.991 0.946869L47.991 6.78234Q47.991 8.94485 50.1238 8.94485ZM64.54 8.94485L70.2146 8.94485Q72.5379 8.94485 72.5379 6.78234L72.5379 0.946869Q72.5379-1.24541 70.2146-1.24541L64.54-1.24541Q62.3774-1.24541 62.3774 0.946869L62.3774 6.78234Q62.3774 8.94485 64.54 8.94485Z"/>
  </g>
  <g id="Light-L" transform="matrix(1 0 0 1 1101.73 1556)">
   <path d="M32.4492 25.558L70.307 25.558Q77.8765 25.558 82.0935 21.4465Q86.3105 17.335 86.3105 9.93636L86.3105-79.5712Q86.3105-86.9698 82.0935-91.0813Q77.8765-95.1928 70.307-95.1928L32.4492-95.1928Q24.9299-95.1928 20.7128-91.0813Q16.4957-86.9698 16.4957-79.5712L16.4957 9.93636Q16.4957 17.335 20.7128 21.4465Q24.9299 25.558 32.4492 25.558ZM33.2232 19.0036Q28.1267 19.0036 25.6136 16.5458Q23.1004 14.0879 23.1004 9.11202L23.1004-78.7469Q23.1004-83.753 25.6136-86.1957Q28.1267-88.6384 33.2232-88.6384L69.5832-88.6384Q74.6797-88.6384 77.1677-86.1957Q79.6556-83.753 79.6556-78.7469L79.6556 9.11202Q79.6556 14.0879 77.1677 16.5458Q74.6797 19.0036 69.5832 19.0036ZM36.1384-39.6225L66.6679-39.6225Q72.5587-39.6225 72.5587-45.0307L72.5587-75.0978Q72.5587-80.506 66.6679-80.506L36.1384-80.506Q30.1974-80.506 30.1974-75.0978L30.1974-45.0307Q30.1974-39.6225 36.1384-39.6225ZM34.2285-21.3973L39.6769-21.3973Q41.9187-21.3973 41.9187-23.4782L41.9187-29.0372Q41.9187-31.1684 39.6769-31.1684L34.2285-31.1684Q32.0471-31.1684 32.0471-29.0372L32.0471-23.4782Q32.0471-21.3973 34.2285-21.3973ZM48.5231-21.3973L54.0017-21.3973Q56.2434-21.3973 56.2434-23.4782L56.2434-29.0372Q56.2434-31.1684 54.0017-31.1684L48.5231-31.1684Q46.4724-31.1684 46.4724-29.0372L46.4724-23.4782Q46.4724-21.3973 48.5231-21.3973ZM62.8982-21.3973L68.3266-21.3973Q70.5883-21.3973 70.5883-23.4782L70.5883-29.0372Q70.5883-31.1684 68.3266-31.1684L62.8982-31.1684Q60.7972-31.1684 60.7972-29.0372L60.7972-23.4782Q60.7972-21.3973 62.8982-21.3973ZM34.2285-6.31863L39.6769-6.31863Q41.9187-6.31863 41.9187-8.44975L41.9187-14.0087Q41.9187-16.0896 39.6769-16.0896L34.2285-16.0896Q32.0471-16.0896 32.0471-14.0087L32.0471-8.44975Q32.0471-6.31863 34.2285-6.31863ZM48.5231-6.31863L54.0017-6.31863Q56.2434-6.31863 56.2434-8.44975L56.2434-14.0087Q56.2434-16.0896 54.0017-16.0896L48.5231-16.0896Q46.4724-16.0896 46.4724-14.0087L46.4724-8.44975Q46.4724-6.31863 48.5231-6.31863ZM62.8982-6.31863L68.3266-6.31863Q70.5883-6.31863 70.5883-8.44975L70.5883-14.0087Q70.5883-16.0896 68.3266-16.0896L62.8982-16.0896Q60.7972-16.0896 60.7972-14.0087L60.7972-8.44975Q60.7972-6.31863 62.8982-6.31863ZM34.2285 8.76015L39.6769 8.76015Q41.9187 8.76015 41.9187 6.65922L41.9187 1.06997Q41.9187-1.08124 39.6769-1.08124L34.2285-1.08124Q32.0471-1.08124 32.0471 1.06997L32.0471 6.65922Q32.0471 8.76015 34.2285 8.76015ZM48.5231 8.76015L54.0017 8.76015Q56.2434 8.76015 56.2434 6.65922L56.2434 1.06997Q56.2434-1.08124 54.0017-1.08124L48.5231-1.08124Q46.4724-1.08124 46.4724 1.06997L46.4724 6.65922Q46.4724 8.76015 48.5231 8.76015ZM62.8982 8.76015L68.3266 8.76015Q70.5883 8.76015 70.5883 6.65922L70.5883 1.06997Q70.5883-1.08124 68.3266-1.08124L62.8982-1.08124Q60.7972-1.08124 60.7972 1.06997L60.7972 6.65922Q60.7972 8.76015 62.8982 8.76015Z"/>
  </g>
  <g id="Thin-L" transform="matrix(1 0 0 1 807.34 1556)">
   <path d="M31.5535 23.658L66.5343 23.658Q74.0224 23.658 77.8458 19.8451Q81.6693 16.0322 81.6693 8.63355L81.6693-78.2683Q81.6693-85.667 77.8458-89.4799Q74.0224-93.2929 66.5343-93.2929L31.5535-93.2929Q24.1428-93.2929 20.3192-89.4799Q16.4957-85.667 16.4957-78.2683L16.4957 8.63355Q16.4957 16.0322 20.3192 19.8451Q24.1428 23.658 31.5535 23.658ZM31.9204 19.8178Q25.9825 19.8178 23.1979 17.075Q20.4134 14.3322 20.4134 8.40633L20.4134-78.0412Q20.4134-83.9701 23.1979-86.7114Q25.9825-89.4526 31.9204-89.4526L66.2447-89.4526Q72.1827-89.4526 74.9285-86.7114Q77.6742-83.9701 77.6742-78.0412L77.6742 8.40633Q77.6742 14.3322 74.9285 17.075Q72.1827 19.8178 66.2447 19.8178ZM34.6727-39.0254L63.4923-39.0254Q69.8716-39.0254 69.8716-44.9221L69.8716-74.2021Q69.8716-80.0989 63.4923-80.0989L34.6727-80.0989Q28.216-80.0989 28.216-74.2021L28.216-44.9221Q28.216-39.0254 34.6727-39.0254ZM32.1656-20.9902L37.3427-20.9902Q39.4488-20.9902 39.4488-22.9354L39.4488-28.1958Q39.4488-30.2184 37.3427-30.2184L32.1656-30.2184Q30.0657-30.2184 30.0657-28.1958L30.0657-22.9354Q30.0657-20.9902 32.1656-20.9902ZM46.406-20.9902L51.5861-20.9902Q53.6921-20.9902 53.6921-22.9354L53.6921-28.1958Q53.6921-30.2184 51.5861-30.2184L46.406-30.2184Q44.4639-30.2184 44.4639-28.1958L44.4639-22.9354Q44.4639-20.9902 46.406-20.9902ZM60.7268-20.9902L65.8295-20.9902Q68.0098-20.9902 68.0098-22.9354L68.0098-28.1958Q68.0098-30.2184 65.8295-30.2184L60.7268-30.2184Q58.7073-30.2184 58.7073-28.1958L58.7073-22.9354Q58.7073-20.9902 60.7268-20.9902ZM32.1656-6.23719L37.3427-6.23719Q39.4488-6.23719 39.4488-8.25976L39.4488-13.5202Q39.4488-15.4654 37.3427-15.4654L32.1656-15.4654Q30.0657-15.4654 30.0657-13.5202L30.0657-8.25976Q30.0657-6.23719 32.1656-6.23719ZM46.406-6.23719L51.5861-6.23719Q53.6921-6.23719 53.6921-8.25976L53.6921-13.5202Q53.6921-15.4654 51.5861-15.4654L46.406-15.4654Q44.4639-15.4654 44.4639-13.5202L44.4639-8.25976Q44.4639-6.23719 46.406-6.23719ZM60.7268-6.23719L65.8295-6.23719Q68.0098-6.23719 68.0098-8.25976L68.0098-13.5202Q68.0098-15.4654 65.8295-15.4654L60.7268-15.4654Q58.7073-15.4654 58.7073-13.5202L58.7073-8.25976Q58.7073-6.23719 60.7268-6.23719ZM32.1656 8.51587L37.3427 8.51587Q39.4488 8.51587 39.4488 6.4964L39.4488 1.23279Q39.4488-0.864119 37.3427-0.864119L32.1656-0.864119Q30.0657-0.864119 30.0657 1.23279L30.0657 6.4964Q30.0657 8.51587 32.1656 8.51587ZM46.406 8.51587L51.5861 8.51587Q53.6921 8.51587 53.6921 6.4964L53.6921 1.23279Q53.6921-0.864119 51.5861-0.864119L46.406-0.864119Q44.4639-0.864119 44.4639 1.23279L44.4639 6.4964Q44.4639 8.51587 46.406 8.51587ZM60.7268 8.51587L65.8295 8.51587Q68.0098 8.51587 68.0098 6.4964L68.0098 1.23279Q68.0098-0.864119 65.8295-0.864119L60.7268-0.864119Q58.7073-0.864119 58.7073 1.23279L58.7073 6.4964Q58.7073 8.51587 60.7268 8.51587Z"/>
  </g>
  <g id="Ultralight-L" transform="matrix(1 0 0 1 511.816 1556)">
   <path d="M31.0947 22.6849L64.6019 22.6849Q72.0483 22.6849 75.6702 19.0249Q79.292 15.3649 79.292 7.96625L79.292-77.601Q79.292-84.9997 75.6702-88.6596Q72.0483-92.3198 64.6019-92.3198L31.0947-92.3198Q23.7396-92.3198 20.1175-88.6596Q16.4957-84.9997 16.4957-77.601L16.4957 7.96625Q16.4957 15.3649 20.1175 19.0249Q23.7396 22.6849 31.0947 22.6849ZM31.2531 20.2349Q24.8842 20.2349 21.9606 17.3461Q19.0371 14.4573 19.0371 8.04488L19.0371-77.6797Q19.0371-84.0813 21.9606-86.9756Q24.8842-89.8696 31.2531-89.8696L64.5348-89.8696Q70.9037-89.8696 73.7816-86.9756Q76.6594-84.0813 76.6594-77.6797L76.6594 8.04488Q76.6594 14.4573 73.7816 17.3461Q70.9037 20.2349 64.5348 20.2349ZM33.922-38.7195L61.8657-38.7195Q68.4953-38.7195 68.4953-44.8665L68.4953-73.7433Q68.4953-79.8903 61.8657-79.8903L33.922-79.8903Q27.2011-79.8903 27.2011-73.7433L27.2011-44.8665Q27.2011-38.7195 33.922-38.7195ZM31.1091-20.7816L36.1471-20.7816Q38.1837-20.7816 38.1837-22.6573L38.1837-27.7649Q38.1837-29.7318 36.1471-29.7318L31.1091-29.7318Q29.0509-29.7318 29.0509-27.7649L29.0509-22.6573Q29.0509-20.7816 31.1091-20.7816ZM45.3217-20.7816L50.3488-20.7816Q52.3853-20.7816 52.3853-22.6573L52.3853-27.7649Q52.3853-29.7318 50.3488-29.7318L45.3217-29.7318Q43.4351-29.7318 43.4351-27.7649L43.4351-22.6573Q43.4351-20.7816 45.3217-20.7816ZM59.6146-20.7816L64.5505-20.7816Q66.6891-20.7816 66.6891-22.6573L66.6891-27.7649Q66.6891-29.7318 64.5505-29.7318L59.6146-29.7318Q57.6368-29.7318 57.6368-27.7649L57.6368-22.6573Q57.6368-20.7816 59.6146-20.7816ZM31.1091-6.19548L36.1471-6.19548Q38.1837-6.19548 38.1837-8.16244L38.1837-13.27Q38.1837-15.1457 36.1471-15.1457L31.1091-15.1457Q29.0509-15.1457 29.0509-13.27L29.0509-8.16244Q29.0509-6.19548 31.1091-6.19548ZM45.3217-6.19548L50.3488-6.19548Q52.3853-6.19548 52.3853-8.16244L52.3853-13.27Q52.3853-15.1457 50.3488-15.1457L45.3217-15.1457Q43.4351-15.1457 43.4351-13.27L43.4351-8.16244Q43.4351-6.19548 45.3217-6.19548ZM59.6146-6.19548L64.5505-6.19548Q66.6891-6.19548 66.6891-8.16244L66.6891-13.27Q66.6891-15.1457 64.5505-15.1457L59.6146-15.1457Q57.6368-15.1457 57.6368-13.27L57.6368-8.16244Q57.6368-6.19548 59.6146-6.19548ZM31.1091 8.39075L36.1471 8.39075Q38.1837 8.39075 38.1837 6.413L38.1837 1.31618Q38.1837-0.75291 36.1471-0.75291L31.1091-0.75291Q29.0509-0.75291 29.0509 1.31618L29.0509 6.413Q29.0509 8.39075 31.1091 8.39075ZM45.3217 8.39075L50.3488 8.39075Q52.3853 8.39075 52.3853 6.413L52.3853 1.31618Q52.3853-0.75291 50.3488-0.75291L45.3217-0.75291Q43.4351-0.75291 43.4351 1.31618L43.4351 6.413Q43.4351 8.39075 45.3217 8.39075ZM59.6146 8.39075L64.5505 8.39075Q66.6891 8.39075 66.6891 6.413L66.6891 1.31618Q66.6891-0.75291 64.5505-0.75291L59.6146-0.75291Q57.6368-0.75291 57.6368 1.31618L57.6368 6.413Q57.6368 8.39075 59.6146 8.39075Z"/>
  </g>
  <g id="Black-M" transform="matrix(1 0 0 1 2881.97 1126)">
   <path d="M31.7447 20.7213L71.1155 20.7213Q80.0095 20.7213 85.0448 15.7055Q90.0799 10.6896 90.0799 1.81725L90.0799-71.9234Q90.0799-80.7957 85.0448-85.8117Q80.0095-90.8275 71.1155-90.8275L31.7447-90.8275Q22.8503-90.8275 17.8151-85.8117Q12.7799-80.7957 12.7799-71.9234L12.7799 1.81725Q12.7799 10.6896 17.8151 15.7055Q22.8503 20.7213 31.7447 20.7213ZM34.4746 3.38296Q32.4849 3.38296 31.3015 2.20488Q30.118 1.02679 30.118-0.940887L30.118-69.1653Q30.118-71.1385 31.3015-72.3138Q32.4849-73.4891 34.4746-73.4891L68.3852-73.4891Q70.375-73.4891 71.5585-72.2853Q72.7421-71.0814 72.7421-68.8798L72.7421-0.940887Q72.7421 1.02679 71.5585 2.20488Q70.375 3.38296 68.3852 3.38296ZM37.7109-40.1245L65.206-40.1245Q68.9492-40.1245 68.9492-43.8936L68.9492-65.9278Q68.9492-69.6968 65.206-69.6968L37.7109-69.6968Q33.9109-69.6968 33.9109-65.9849L33.9109-43.8365Q33.9109-40.1245 37.7109-40.1245ZM37.6085-25.7871L42.5646-25.7871Q44.6117-25.7871 44.6117-27.6525L44.6117-32.7907Q44.6117-34.6558 42.5646-34.6558L37.6085-34.6558Q35.7435-34.6558 35.7435-32.7907L35.7435-27.6525Q35.7435-25.7871 37.6085-25.7871ZM48.8757-25.7871L53.8374-25.7871Q55.8846-25.7871 55.8846-27.6525L55.8846-32.7907Q55.8846-34.6558 53.8374-34.6558L48.8757-34.6558Q47.0158-34.6558 47.0158-32.7907L47.0158-27.6525Q47.0158-25.7871 48.8757-25.7871ZM60.1483-25.7871L65.1103-25.7871Q67.1516-25.7871 67.1516-27.6525L67.1516-32.7907Q67.1516-34.6558 65.1103-34.6558L60.1483-34.6558Q58.2887-34.6558 58.2887-32.7907L58.2887-27.6525Q58.2887-25.7871 60.1483-25.7871ZM37.6085-13.9196L42.5646-13.9196Q44.6117-13.9196 44.6117-15.7847L44.6117-20.9228Q44.6117-22.7883 42.5646-22.7883L37.6085-22.7883Q35.7435-22.7883 35.7435-20.9228L35.7435-15.7847Q35.7435-13.9196 37.6085-13.9196ZM48.8757-13.9196L53.8374-13.9196Q55.8846-13.9196 55.8846-15.7847L55.8846-20.9228Q55.8846-22.7883 53.8374-22.7883L48.8757-22.7883Q47.0158-22.7883 47.0158-20.9228L47.0158-15.7847Q47.0158-13.9196 48.8757-13.9196ZM60.1483-13.9196L65.1103-13.9196Q67.1516-13.9196 67.1516-15.7847L67.1516-20.9228Q67.1516-22.7883 65.1103-22.7883L60.1483-22.7883Q58.2887-22.7883 58.2887-20.9228L58.2887-15.7847Q58.2887-13.9196 60.1483-13.9196ZM37.6085-2.05191L42.5646-2.05191Q44.6117-2.05191 44.6117-3.9116L44.6117-9.05525Q44.6117-10.9145 42.5646-10.9145L37.6085-10.9145Q35.7435-10.9145 35.7435-9.05525L35.7435-3.9116Q35.7435-2.05191 37.6085-2.05191ZM48.8757-2.05191L53.8374-2.05191Q55.8846-2.05191 55.8846-3.9116L55.8846-9.05525Q55.8846-10.9145 53.8374-10.9145L48.8757-10.9145Q47.0158-10.9145 47.0158-9.05525L47.0158-3.9116Q47.0158-2.05191 48.8757-2.05191ZM60.1483-2.05191L65.1103-2.05191Q67.1516-2.05191 67.1516-3.9116L67.1516-9.05525Q67.1516-10.9145 65.1103-10.9145L60.1483-10.9145Q58.2887-10.9145 58.2887-9.05525L58.2887-3.9116Q58.2887-2.05191 60.1483-2.05191Z"/>
  </g>
  <g id="Heavy-M" transform="matrix(1 0 0 1 2587.44 1126)">
   <path d="M30.4008 19.0871L68.0923 19.0871Q76.2909 19.0871 81.0033 14.4316Q85.7156 9.77607 85.7156 1.64486L85.7156-71.6837Q85.7156-79.8149 81.0033-84.4704Q76.2909-89.1259 68.0923-89.1259L30.4008-89.1259Q22.2047-89.1259 17.4923-84.4704Q12.7799-79.8149 12.7799-71.6837L12.7799 1.64486Q12.7799 9.77607 17.4923 14.4316Q22.2047 19.0871 30.4008 19.0871ZM32.7257 3.99096Q30.4756 3.99096 29.1771 2.70989Q27.8785 1.42882 27.8785-0.756347L27.8785-69.2824Q27.8785-71.4839 29.1771-72.7568Q30.4756-74.0297 32.7257-74.0297L65.7698-74.0297Q68.02-74.0297 69.3172-72.735Q70.6145-71.4403 70.6145-69.0644L70.6145-0.756347Q70.6145 1.42882 69.3172 2.70989Q68.02 3.99096 65.7698 3.99096ZM35.7703-39.9158L62.7688-39.9158Q66.5885-39.9158 66.5885-43.667L66.5885-66.1874Q66.5885-69.9385 62.7688-69.9385L35.7703-69.9385Q31.9046-69.9385 31.9046-66.2311L31.9046-43.6234Q31.9046-39.9158 35.7703-39.9158ZM35.4861-25.5842L40.3339-25.5842Q42.3403-25.5842 42.3403-27.4223L42.3403-32.436Q42.3403-34.2766 40.3339-34.2766L35.4861-34.2766Q33.6429-34.2766 33.6429-32.436L33.6429-27.4223Q33.6429-25.5842 35.4861-25.5842ZM46.7209-25.5842L51.585-25.5842Q53.5915-25.5842 53.5915-27.4223L53.5915-32.436Q53.5915-34.2766 51.585-34.2766L46.7209-34.2766Q44.8989-34.2766 44.8989-32.436L44.8989-27.4223Q44.8989-25.5842 46.7209-25.5842ZM57.9745-25.5842L62.8362-25.5842Q64.8288-25.5842 64.8288-27.4223L64.8288-32.436Q64.8288-34.2766 62.8362-34.2766L57.9745-34.2766Q56.1501-34.2766 56.1501-32.436L56.1501-27.4223Q56.1501-25.5842 57.9745-25.5842ZM35.4861-13.6822L40.3339-13.6822Q42.3403-13.6822 42.3403-15.5229L42.3403-20.5364Q42.3403-22.3747 40.3339-22.3747L35.4861-22.3747Q33.6429-22.3747 33.6429-20.5364L33.6429-15.5229Q33.6429-13.6822 35.4861-13.6822ZM46.7209-13.6822L51.585-13.6822Q53.5915-13.6822 53.5915-15.5229L53.5915-20.5364Q53.5915-22.3747 51.585-22.3747L46.7209-22.3747Q44.8989-22.3747 44.8989-20.5364L44.8989-15.5229Q44.8989-13.6822 46.7209-13.6822ZM57.9745-13.6822L62.8362-13.6822Q64.8288-13.6822 64.8288-15.5229L64.8288-20.5364Q64.8288-22.3747 62.8362-22.3747L57.9745-22.3747Q56.1501-22.3747 56.1501-20.5364L56.1501-15.5229Q56.1501-13.6822 57.9745-13.6822ZM35.4861-1.78021L40.3339-1.78021Q42.3403-1.78021 42.3403-3.60469L42.3403-8.6345Q42.3403-10.4613 40.3339-10.4613L35.4861-10.4613Q33.6429-10.4613 33.6429-8.6345L33.6429-3.60469Q33.6429-1.78021 35.4861-1.78021ZM46.7209-1.78021L51.585-1.78021Q53.5915-1.78021 53.5915-3.60469L53.5915-8.6345Q53.5915-10.4613 51.585-10.4613L46.7209-10.4613Q44.8989-10.4613 44.8989-8.6345L44.8989-3.60469Q44.8989-1.78021 46.7209-1.78021ZM57.9745-1.78021L62.8362-1.78021Q64.8288-1.78021 64.8288-3.60469L64.8288-8.6345Q64.8288-10.4613 62.8362-10.4613L57.9745-10.4613Q56.1501-10.4613 56.1501-8.6345L56.1501-3.60469Q56.1501-1.78021 57.9745-1.78021Z"/>
  </g>
  <g id="Bold-M" transform="matrix(1 0 0 1 2293.17 1126)">
   <path d="M28.8975 17.2589L64.7104 17.2589Q72.131 17.2589 76.4822 13.0066Q80.8334 8.75419 80.8334 1.45201L80.8334-71.4155Q80.8334-78.7176 76.4822-82.97Q72.131-87.2224 64.7104-87.2224L28.8975-87.2224Q21.4824-87.2224 17.1311-82.97Q12.7799-78.7176 12.7799-71.4155L12.7799 1.45201Q12.7799 8.75419 17.1311 13.0066Q21.4824 17.2589 28.8975 17.2589ZM30.7692 4.67108Q28.2278 4.67108 26.8006 3.27482Q25.3733 1.87856 25.3733-0.549913L25.3733-69.4135Q25.3733-71.8703 26.8006-73.2524Q28.2278-74.6345 30.7692-74.6345L62.8441-74.6345Q65.3855-74.6345 66.81-73.2381Q68.2345-71.8417 68.2345-69.2708L68.2345-0.549913Q68.2345 1.87856 66.81 3.27482Q65.3855 4.67108 62.8441 4.67108ZM33.5994-39.6824L60.0424-39.6824Q63.9476-39.6824 63.9476-43.4135L63.9476-66.4778Q63.9476-70.2089 60.0424-70.2089L33.5994-70.2089Q29.6602-70.2089 29.6602-66.5064L29.6602-43.385Q29.6602-39.6824 33.5994-39.6824ZM33.1119-25.3572L37.8385-25.3572Q39.7994-25.3572 39.7994-27.1649L39.7994-32.0392Q39.7994-33.8525 37.8385-33.8525L33.1119-33.8525Q31.293-33.8525 31.293-32.0392L31.293-27.1649Q31.293-25.3572 33.1119-25.3572ZM44.3104-25.3572L49.0653-25.3572Q51.0263-25.3572 51.0263-27.1649L51.0263-32.0392Q51.0263-33.8525 49.0653-33.8525L44.3104-33.8525Q42.5309-33.8525 42.5309-32.0392L42.5309-27.1649Q42.5309-25.3572 44.3104-25.3572ZM55.5428-25.3572L60.2922-25.3572Q62.2304-25.3572 62.2304-27.1649L62.2304-32.0392Q62.2304-33.8525 60.2922-33.8525L55.5428-33.8525Q53.7578-33.8525 53.7578-32.0392L53.7578-27.1649Q53.7578-25.3572 55.5428-25.3572ZM33.1119-13.4167L37.8385-13.4167Q39.7994-13.4167 39.7994-15.23L39.7994-20.1042Q39.7994-21.912 37.8385-21.912L33.1119-21.912Q31.293-21.912 31.293-20.1042L31.293-15.23Q31.293-13.4167 33.1119-13.4167ZM44.3104-13.4167L49.0653-13.4167Q51.0263-13.4167 51.0263-15.23L51.0263-20.1042Q51.0263-21.912 49.0653-21.912L44.3104-21.912Q42.5309-21.912 42.5309-20.1042L42.5309-15.23Q42.5309-13.4167 44.3104-13.4167ZM55.5428-13.4167L60.2922-13.4167Q62.2304-13.4167 62.2304-15.23L62.2304-20.1042Q62.2304-21.912 60.2922-21.912L55.5428-21.912Q53.7578-21.912 53.7578-20.1042L53.7578-15.23Q53.7578-13.4167 55.5428-13.4167ZM33.1119-1.47628L37.8385-1.47628Q39.7994-1.47628 39.7994-3.26137L39.7994-8.16383Q39.7994-9.9544 37.8385-9.9544L33.1119-9.9544Q31.293-9.9544 31.293-8.16383L31.293-3.26137Q31.293-1.47628 33.1119-1.47628ZM44.3104-1.47628L49.0653-1.47628Q51.0263-1.47628 51.0263-3.26137L51.0263-8.16383Q51.0263-9.9544 49.0653-9.9544L44.3104-9.9544Q42.5309-9.9544 42.5309-8.16383L42.5309-3.26137Q42.5309-1.47628 44.3104-1.47628ZM55.5428-1.47628L60.2922-1.47628Q62.2304-1.47628 62.2304-3.26137L62.2304-8.16383Q62.2304-9.9544 60.2922-9.9544L55.5428-9.9544Q53.7578-9.9544 53.7578-8.16383L53.7578-3.26137Q53.7578-1.47628 55.5428-1.47628Z"/>
  </g>
  <g id="Semibold-M" transform="matrix(1 0 0 1 1998.15 1126)">
   <path d="M27.8611 15.9986L62.3789 15.9986Q69.2632 15.9986 73.3655 12.0242Q77.4677 8.04971 77.4677 1.31906L77.4677-71.2305Q77.4677-77.9612 73.3655-81.9357Q69.2632-85.9101 62.3789-85.9101L27.8611-85.9101Q20.9844-85.9101 16.8822-81.9357Q12.7799-77.9612 12.7799-71.2305L12.7799 1.31906Q12.7799 8.04971 16.8822 12.0242Q20.9844 15.9986 27.8611 15.9986ZM29.4205 5.13996Q26.6783 5.13996 25.1623 3.66428Q23.6463 2.1886 23.6463-0.407599L23.6463-69.5039Q23.6463-72.1366 25.1623-73.594Q26.6783-75.0514 29.4205-75.0514L60.8272-75.0514Q63.5694-75.0514 65.0816-73.5849Q66.5937-72.1185 66.5937-69.4131L66.5937-0.407599Q66.5937 2.1886 65.0816 3.66428Q63.5694 5.13996 60.8272 5.13996ZM32.1028-39.5214L58.1629-39.5214Q62.1271-39.5214 62.1271-43.2387L62.1271-66.678Q62.1271-70.3954 58.1629-70.3954L32.1028-70.3954Q28.113-70.3954 28.113-66.6962L28.113-43.2206Q28.113-39.5214 32.1028-39.5214ZM31.4752-25.2007L36.1182-25.2007Q38.0478-25.2007 38.0478-26.9874L38.0478-31.7656Q38.0478-33.56 36.1182-33.56L31.4752-33.56Q29.673-33.56 29.673-31.7656L29.673-26.9874Q29.673-25.2007 31.4752-25.2007ZM42.6487-25.2007L47.3283-25.2007Q49.2579-25.2007 49.2579-26.9874L49.2579-31.7656Q49.2579-33.56 47.3283-33.56L42.6487-33.56Q40.8984-33.56 40.8984-31.7656L40.8984-26.9874Q40.8984-25.2007 42.6487-25.2007ZM53.8664-25.2007L58.5384-25.2007Q60.439-25.2007 60.439-26.9874L60.439-31.7656Q60.439-33.56 58.5384-33.56L53.8664-33.56Q52.1085-33.56 52.1085-31.7656L52.1085-26.9874Q52.1085-25.2007 53.8664-25.2007ZM31.4752-13.2337L36.1182-13.2337Q38.0478-13.2337 38.0478-15.0281L38.0478-19.8063Q38.0478-21.5931 36.1182-21.5931L31.4752-21.5931Q29.673-21.5931 29.673-19.8063L29.673-15.0281Q29.673-13.2337 31.4752-13.2337ZM42.6487-13.2337L47.3283-13.2337Q49.2579-13.2337 49.2579-15.0281L49.2579-19.8063Q49.2579-21.5931 47.3283-21.5931L42.6487-21.5931Q40.8984-21.5931 40.8984-19.8063L40.8984-15.0281Q40.8984-13.2337 42.6487-13.2337ZM53.8664-13.2337L58.5384-13.2337Q60.439-13.2337 60.439-15.0281L60.439-19.8063Q60.439-21.5931 58.5384-21.5931L53.8664-21.5931Q52.1085-21.5931 52.1085-19.8063L52.1085-15.0281Q52.1085-13.2337 53.8664-13.2337ZM31.4752-1.26674L36.1182-1.26674Q38.0478-1.26674 38.0478-3.02468L38.0478-7.83935Q38.0478-9.60491 36.1182-9.60491L31.4752-9.60491Q29.673-9.60491 29.673-7.83935L29.673-3.02468Q29.673-1.26674 31.4752-1.26674ZM42.6487-1.26674L47.3283-1.26674Q49.2579-1.26674 49.2579-3.02468L49.2579-7.83935Q49.2579-9.60491 47.3283-9.60491L42.6487-9.60491Q40.8984-9.60491 40.8984-7.83935L40.8984-3.02468Q40.8984-1.26674 42.6487-1.26674ZM53.8664-1.26674L58.5384-1.26674Q60.439-1.26674 60.439-3.02468L60.439-7.83935Q60.439-9.60491 58.5384-9.60491L53.8664-9.60491Q52.1085-9.60491 52.1085-7.83935L52.1085-3.02468Q52.1085-1.26674 53.8664-1.26674Z"/>
  </g>
  <g id="Medium-M" transform="matrix(1 0 0 1 1702.71 1126)">
   <path d="M27.0753 15.043L60.6111 15.043Q67.0888 15.043 71.0022 11.2793Q74.9156 7.51554 74.9156 1.21826L74.9156-71.0904Q74.9156-77.3876 71.0022-81.1514Q67.0888-84.9151 60.6111-84.9151L27.0753-84.9151Q20.6069-84.9151 16.6934-81.1514Q12.7799-77.3876 12.7799-71.0904L12.7799 1.21826Q12.7799 7.51554 16.6934 11.2793Q20.6069 15.043 27.0753 15.043ZM28.3978 5.49548Q25.5033 5.49548 23.92 3.95959Q22.3367 2.42369 22.3367-0.299691L22.3367-69.5724Q22.3367-72.3386 23.92-73.853Q25.5033-75.3676 28.3978-75.3676L59.2979-75.3676Q62.1923-75.3676 63.771-73.8479Q65.3497-72.3283 65.3497-69.521L65.3497-0.299691Q65.3497 2.42369 63.771 3.95959Q62.1923 5.49548 59.2979 5.49548ZM30.9681-39.3994L56.7377-39.3994Q60.7466-39.3994 60.7466-43.1062L60.7466-66.8299Q60.7466-70.5367 56.7377-70.5367L30.9681-70.5367Q26.9398-70.5367 26.9398-66.8402L26.9398-43.096Q26.9398-39.3994 30.9681-39.3994ZM30.2341-25.082L34.8138-25.082Q36.7196-25.082 36.7196-26.8528L36.7196-31.5582Q36.7196-33.3383 34.8138-33.3383L30.2341-33.3383Q28.4447-33.3383 28.4447-31.5582L28.4447-26.8528Q28.4447-25.082 30.2341-25.082ZM41.3887-25.082L46.0112-25.082Q47.917-25.082 47.917-26.8528L47.917-31.5582Q47.917-33.3383 46.0112-33.3383L41.3887-33.3383Q39.6606-33.3383 39.6606-31.5582L39.6606-26.8528Q39.6606-25.082 41.3887-25.082ZM52.5953-25.082L57.2086-25.082Q59.0808-25.082 59.0808-26.8528L59.0808-31.5582Q59.0808-33.3383 57.2086-33.3383L52.5953-33.3383Q50.858-33.3383 50.858-31.5582L50.858-26.8528Q50.858-25.082 52.5953-25.082ZM30.2341-13.0949L34.8138-13.0949Q36.7196-13.0949 36.7196-14.875L36.7196-19.5804Q36.7196-21.3512 34.8138-21.3512L30.2341-21.3512Q28.4447-21.3512 28.4447-19.5804L28.4447-14.875Q28.4447-13.0949 30.2341-13.0949ZM41.3887-13.0949L46.0112-13.0949Q47.917-13.0949 47.917-14.875L47.917-19.5804Q47.917-21.3512 46.0112-21.3512L41.3887-21.3512Q39.6606-21.3512 39.6606-19.5804L39.6606-14.875Q39.6606-13.0949 41.3887-13.0949ZM52.5953-13.0949L57.2086-13.0949Q59.0808-13.0949 59.0808-14.875L59.0808-19.5804Q59.0808-21.3512 57.2086-21.3512L52.5953-21.3512Q50.858-21.3512 50.858-19.5804L50.858-14.875Q50.858-13.0949 52.5953-13.0949ZM30.2341-1.10787L34.8138-1.10787Q36.7196-1.10787 36.7196-2.84521L36.7196-7.59332Q36.7196-9.33991 34.8138-9.33991L30.2341-9.33991Q28.4447-9.33991 28.4447-7.59332L28.4447-2.84521Q28.4447-1.10787 30.2341-1.10787ZM41.3887-1.10787L46.0112-1.10787Q47.917-1.10787 47.917-2.84521L47.917-7.59332Q47.917-9.33991 46.0112-9.33991L41.3887-9.33991Q39.6606-9.33991 39.6606-7.59332L39.6606-2.84521Q39.6606-1.10787 41.3887-1.10787ZM52.5953-1.10787L57.2086-1.10787Q59.0808-1.10787 59.0808-2.84521L59.0808-7.59332Q59.0808-9.33991 57.2086-9.33991L52.5953-9.33991Q50.858-9.33991 50.858-7.59332L50.858-2.84521Q50.858-1.10787 52.5953-1.10787Z"/>
  </g>
  <g id="Regular-M" transform="matrix(1 0 0 1 1407.67 1126)">
   <path d="M26.0503 13.7965L58.3053 13.7965Q64.2525 13.7965 67.9197 10.3077Q71.5869 6.8188 71.5869 1.08677L71.5869-70.9075Q71.5869-76.6395 67.9197-80.1284Q64.2525-83.6172 58.3053-83.6172L26.0503-83.6172Q20.1144-83.6172 16.4472-80.1284Q12.7799-76.6395 12.7799-70.9075L12.7799 1.08677Q12.7799 6.8188 16.4472 10.3077Q20.1144 13.7965 26.0503 13.7965ZM27.0639 5.9592Q23.9708 5.9592 22.2997 4.34477Q20.6287 2.73033 20.6287-0.15894L20.6287-69.6618Q20.6287-72.602 22.2997-74.1909Q23.9708-75.7799 27.0639-75.7799L57.3031-75.7799Q60.3961-75.7799 62.0615-74.1909Q63.7269-72.602 63.7269-69.6618L63.7269-0.15894Q63.7269 2.73033 62.0615 4.34477Q60.3961 5.9592 57.3031 5.9592ZM29.4879-39.2402L54.8789-39.2402Q58.946-39.2402 58.946-42.9334L58.946-67.0279Q58.946-70.7211 54.8789-70.7211L29.4879-70.7211Q25.4095-70.7211 25.4095-67.0279L25.4095-42.9334Q25.4095-39.2402 29.4879-39.2402ZM28.6154-24.9272L33.1124-24.9272Q34.9872-24.9272 34.9872-26.6773L34.9872-31.2876Q34.9872-33.0491 33.1124-33.0491L28.6154-33.0491Q26.8425-33.0491 26.8425-31.2876L26.8425-26.6773Q26.8425-24.9272 28.6154-24.9272ZM39.7452-24.9272L44.2932-24.9272Q46.168-24.9272 46.168-26.6773L46.168-31.2876Q46.168-33.0491 44.2932-33.0491L39.7452-33.0491Q38.046-33.0491 38.046-31.2876L38.046-26.6773Q38.046-24.9272 39.7452-24.9272ZM50.9374-24.9272L55.4741-24.9272Q57.3091-24.9272 57.3091-26.6773L57.3091-31.2876Q57.3091-33.0491 55.4741-33.0491L50.9374-33.0491Q49.2269-33.0491 49.2269-31.2876L49.2269-26.6773Q49.2269-24.9272 50.9374-24.9272ZM28.6154-12.9139L33.1124-12.9139Q34.9872-12.9139 34.9872-14.6754L34.9872-19.2857Q34.9872-21.0358 33.1124-21.0358L28.6154-21.0358Q26.8425-21.0358 26.8425-19.2857L26.8425-14.6754Q26.8425-12.9139 28.6154-12.9139ZM39.7452-12.9139L44.2932-12.9139Q46.168-12.9139 46.168-14.6754L46.168-19.2857Q46.168-21.0358 44.2932-21.0358L39.7452-21.0358Q38.046-21.0358 38.046-19.2857L38.046-14.6754Q38.046-12.9139 39.7452-12.9139ZM50.9374-12.9139L55.4741-12.9139Q57.3091-12.9139 57.3091-14.6754L57.3091-19.2857Q57.3091-21.0358 55.4741-21.0358L50.9374-21.0358Q49.2269-21.0358 49.2269-19.2857L49.2269-14.6754Q49.2269-12.9139 50.9374-12.9139ZM28.6154-0.90064L33.1124-0.90064Q34.9872-0.90064 34.9872-2.61113L34.9872-7.27241Q34.9872-8.99426 33.1124-8.99426L28.6154-8.99426Q26.8425-8.99426 26.8425-7.27241L26.8425-2.61113Q26.8425-0.90064 28.6154-0.90064ZM39.7452-0.90064L44.2932-0.90064Q46.168-0.90064 46.168-2.61113L46.168-7.27241Q46.168-8.99426 44.2932-8.99426L39.7452-8.99426Q38.046-8.99426 38.046-7.27241L38.046-2.61113Q38.046-0.90064 39.7452-0.90064ZM50.9374-0.90064L55.4741-0.90064Q57.3091-0.90064 57.3091-2.61113L57.3091-7.27241Q57.3091-8.99426 55.4741-8.99426L50.9374-8.99426Q49.2269-8.99426 49.2269-7.27241L49.2269-2.61113Q49.2269-0.90064 50.9374-0.90064Z"/>
  </g>
  <g id="Light-M" transform="matrix(1 0 0 1 1112.53 1126)">
   <path d="M25.4431 12.5086L55.7478 12.5086Q61.6399 12.5086 65.0403 9.22214Q68.4407 5.93565 68.4407 0.203617L68.4407-70.0243Q68.4407-75.7564 65.0403-79.0428Q61.6399-82.3293 55.7478-82.3293L25.4431-82.3293Q19.5809-82.3293 16.1804-79.0428Q12.7799-75.7564 12.7799-70.0243L12.7799 0.203617Q12.7799 5.93565 16.1804 9.22214Q19.5809 12.5086 25.4431 12.5086ZM26.1807 6.51118Q22.5173 6.51118 20.6622 4.70355Q18.8071 2.89592 18.8071-0.637314L18.8071-69.1834Q18.8071-72.7492 20.6622-74.5405Q22.5173-76.3319 26.1807-76.3319L55.04-76.3319Q58.7034-76.3319 60.5436-74.5405Q62.3838-72.7492 62.3838-69.1834L62.3838-0.637314Q62.3838 2.89592 60.5436 4.70355Q58.7034 6.51118 55.04 6.51118ZM28.4944-38.8354L52.7262-38.8354Q57.1245-38.8354 57.1245-42.8598L57.1245-66.4207Q57.1245-70.4451 52.7262-70.4451L28.4944-70.4451Q24.0664-70.4451 24.0664-66.4207L24.0664-42.8598Q24.0664-38.8354 28.4944-38.8354ZM27.217-24.6512L31.5301-24.6512Q33.3129-24.6512 33.3129-26.3093L33.3129-30.7172Q33.3129-32.4051 31.5301-32.4051L27.217-32.4051Q25.4994-32.4051 25.4994-30.7172L25.4994-26.3093Q25.4994-24.6512 27.217-24.6512ZM38.3101-24.6512L42.6557-24.6512Q44.4385-24.6512 44.4385-26.3093L44.4385-30.7172Q44.4385-32.4051 42.6557-32.4051L38.3101-32.4051Q36.6845-32.4051 36.6845-30.7172L36.6845-26.3093Q36.6845-24.6512 38.3101-24.6512ZM49.4655-24.6512L53.7814-24.6512Q55.5612-24.6512 55.5612-26.3093L55.5612-30.7172Q55.5612-32.4051 53.7814-32.4051L49.4655-32.4051Q47.8101-32.4051 47.8101-30.7172L47.8101-26.3093Q47.8101-24.6512 49.4655-24.6512ZM27.217-12.8587L31.5301-12.8587Q33.3129-12.8587 33.3129-14.5466L33.3129-18.9545Q33.3129-20.6126 31.5301-20.6126L27.217-20.6126Q25.4994-20.6126 25.4994-18.9545L25.4994-14.5466Q25.4994-12.8587 27.217-12.8587ZM38.3101-12.8587L42.6557-12.8587Q44.4385-12.8587 44.4385-14.5466L44.4385-18.9545Q44.4385-20.6126 42.6557-20.6126L38.3101-20.6126Q36.6845-20.6126 36.6845-18.9545L36.6845-14.5466Q36.6845-12.8587 38.3101-12.8587ZM49.4655-12.8587L53.7814-12.8587Q55.5612-12.8587 55.5612-14.5466L55.5612-18.9545Q55.5612-20.6126 53.7814-20.6126L49.4655-20.6126Q47.8101-20.6126 47.8101-18.9545L47.8101-14.5466Q47.8101-12.8587 49.4655-12.8587ZM27.217-1.06623L31.5301-1.06623Q33.3129-1.06623 33.3129-2.7215L33.3129-7.16204Q33.3129-8.84708 31.5301-8.84708L27.217-8.84708Q25.4994-8.84708 25.4994-7.16204L25.4994-2.7215Q25.4994-1.06623 27.217-1.06623ZM38.3101-1.06623L42.6557-1.06623Q44.4385-1.06623 44.4385-2.7215L44.4385-7.16204Q44.4385-8.84708 42.6557-8.84708L38.3101-8.84708Q36.6845-8.84708 36.6845-7.16204L36.6845-2.7215Q36.6845-1.06623 38.3101-1.06623ZM49.4655-1.06623L53.7814-1.06623Q55.5612-1.06623 55.5612-2.7215L55.5612-7.16204Q55.5612-8.84708 53.7814-8.84708L49.4655-8.84708Q47.8101-8.84708 47.8101-7.16204L47.8101-2.7215Q47.8101-1.06623 49.4655-1.06623Z"/>
  </g>
  <g id="Thin-M" transform="matrix(1 0 0 1 817.893 1126)">
   <path d="M24.6401 10.8052L52.3654 10.8052Q58.1844 10.8052 61.232 7.78642Q64.2795 4.76761 64.2795-0.964423L64.2795-68.8562Q64.2795-74.5883 61.232-77.6071Q58.1844-80.626 52.3654-80.626L24.6401-80.626Q18.8752-80.626 15.8275-77.6071Q12.7799-74.5883 12.7799-68.8562L12.7799-0.964423Q12.7799 4.76761 15.8275 7.78642Q18.8752 10.8052 24.6401 10.8052ZM25.0127 7.2412Q20.5949 7.2412 18.4965 5.17807Q16.3981 3.11493 16.3981-1.27L16.3981-68.5507Q16.3981-72.9439 18.4965-75.0029Q20.5949-77.0619 25.0127-77.0619L52.0469-77.0619Q56.4647-77.0619 58.5361-75.0029Q60.6074-72.9439 60.6074-68.5507L60.6074-1.27Q60.6074 3.11493 58.5361 5.17807Q56.4647 7.2412 52.0469 7.2412ZM27.1804-38.3L49.8791-38.3Q54.7154-38.3 54.7154-42.7625L54.7154-65.6176Q54.7154-70.0801 49.8791-70.0801L27.1804-70.0801Q22.29-70.0801 22.29-65.6176L22.29-42.7625Q22.29-38.3 27.1804-38.3ZM25.3676-24.2861L29.4374-24.2861Q31.0985-24.2861 31.0985-25.8226L31.0985-29.9629Q31.0985-31.5534 29.4374-31.5534L25.3676-31.5534Q23.723-31.5534 23.723-29.9629L23.723-25.8226Q23.723-24.2861 25.3676-24.2861ZM36.412-24.2861L40.49-24.2861Q42.151-24.2861 42.151-25.8226L42.151-29.9629Q42.151-31.5534 40.49-31.5534L36.412-31.5534Q34.8838-31.5534 34.8838-29.9629L34.8838-25.8226Q34.8838-24.2861 36.412-24.2861ZM47.5187-24.2861L51.5426-24.2861Q53.2495-24.2861 53.2495-25.8226L53.2495-29.9629Q53.2495-31.5534 51.5426-31.5534L47.5187-31.5534Q45.9364-31.5534 45.9364-29.9629L45.9364-25.8226Q45.9364-24.2861 47.5187-24.2861ZM25.3676-12.7857L29.4374-12.7857Q31.0985-12.7857 31.0985-14.3762L31.0985-18.5165Q31.0985-20.053 29.4374-20.053L25.3676-20.053Q23.723-20.053 23.723-18.5165L23.723-14.3762Q23.723-12.7857 25.3676-12.7857ZM36.412-12.7857L40.49-12.7857Q42.151-12.7857 42.151-14.3762L42.151-18.5165Q42.151-20.053 40.49-20.053L36.412-20.053Q34.8838-20.053 34.8838-18.5165L34.8838-14.3762Q34.8838-12.7857 36.412-12.7857ZM47.5187-12.7857L51.5426-12.7857Q53.2495-12.7857 53.2495-14.3762L53.2495-18.5165Q53.2495-20.053 51.5426-20.053L47.5187-20.053Q45.9364-20.053 45.9364-18.5165L45.9364-14.3762Q45.9364-12.7857 47.5187-12.7857ZM25.3676-1.28524L29.4374-1.28524Q31.0985-1.28524 31.0985-2.86748L31.0985-7.01607Q31.0985-8.65242 29.4374-8.65242L25.3676-8.65242Q23.723-8.65242 23.723-7.01607L23.723-2.86748Q23.723-1.28524 25.3676-1.28524ZM36.412-1.28524L40.49-1.28524Q42.151-1.28524 42.151-2.86748L42.151-7.01607Q42.151-8.65242 40.49-8.65242L36.412-8.65242Q34.8838-8.65242 34.8838-7.01607L34.8838-2.86748Q34.8838-1.28524 36.412-1.28524ZM47.5187-1.28524L51.5426-1.28524Q53.2495-1.28524 53.2495-2.86748L53.2495-7.01607Q53.2495-8.65242 51.5426-8.65242L47.5187-8.65242Q45.9364-8.65242 45.9364-7.01607L45.9364-2.86748Q45.9364-1.28524 47.5187-1.28524Z"/>
  </g>
  <g id="Ultralight-M" transform="matrix(1 0 0 1 522.247 1126)">
   <path d="M24.2288 9.93276L50.6329 9.93276Q56.4145 9.93276 59.2814 7.05105Q62.1482 4.16935 62.1482-1.56269L62.1482-68.258Q62.1482-73.99 59.2814-76.8717Q56.4145-79.7535 50.6329-79.7535L24.2288-79.7535Q18.5137-79.7535 15.6467-76.8717Q12.7799-73.99 12.7799-68.258L12.7799-1.56269Q12.7799 4.16935 15.6467 7.05105Q18.5137 9.93276 24.2288 9.93276ZM24.4145 7.61512Q19.6103 7.61512 17.3872 5.42111Q15.1641 3.22711 15.1641-1.59406L15.1641-68.2267Q15.1641-73.0436 17.3872-75.2398Q19.6103-77.4358 24.4145-77.4358L50.5138-77.4358Q55.318-77.4358 57.5078-75.2398Q59.6975-73.0436 59.6975-68.2267L59.6975-1.59406Q59.6975 3.22711 57.5078 5.42111Q55.318 7.61512 50.5138 7.61512ZM26.5073-38.0258L48.4208-38.0258Q53.4815-38.0258 53.4815-42.7126L53.4815-65.2063Q53.4815-69.8932 48.4208-69.8932L26.5073-69.8932Q21.3801-69.8932 21.3801-65.2063L21.3801-42.7126Q21.3801-38.0258 26.5073-38.0258ZM24.4203-24.0992L28.3655-24.0992Q29.9643-24.0992 29.9643-25.5733L29.9643-29.5765Q29.9643-31.1172 28.3655-31.1172L24.4203-31.1172Q22.8132-31.1172 22.8132-29.5765L22.8132-25.5733Q22.8132-24.0992 24.4203-24.0992ZM35.4398-24.0992L39.3807-24.0992Q40.9794-24.0992 40.9794-25.5733L40.9794-29.5765Q40.9794-31.1172 39.3807-31.1172L35.4398-31.1172Q33.9614-31.1172 33.9614-29.5765L33.9614-25.5733Q33.9614-24.0992 35.4398-24.0992ZM46.5216-24.0992L50.396-24.0992Q52.0654-24.0992 52.0654-25.5733L52.0654-29.5765Q52.0654-31.1172 50.396-31.1172L46.5216-31.1172Q44.9767-31.1172 44.9767-29.5765L44.9767-25.5733Q44.9767-24.0992 46.5216-24.0992ZM24.4203-12.7483L28.3655-12.7483Q29.9643-12.7483 29.9643-14.289L29.9643-18.2921Q29.9643-19.7663 28.3655-19.7663L24.4203-19.7663Q22.8132-19.7663 22.8132-18.2921L22.8132-14.289Q22.8132-12.7483 24.4203-12.7483ZM35.4398-12.7483L39.3807-12.7483Q40.9794-12.7483 40.9794-14.289L40.9794-18.2921Q40.9794-19.7663 39.3807-19.7663L35.4398-19.7663Q33.9614-19.7663 33.9614-18.2921L33.9614-14.289Q33.9614-12.7483 35.4398-12.7483ZM46.5216-12.7483L50.396-12.7483Q52.0654-12.7483 52.0654-14.289L52.0654-18.2921Q52.0654-19.7663 50.396-19.7663L46.5216-19.7663Q44.9767-19.7663 44.9767-18.2921L44.9767-14.289Q44.9767-12.7483 46.5216-12.7483ZM24.4203-1.39742L28.3655-1.39742Q29.9643-1.39742 29.9643-2.94225L29.9643-6.94131Q29.9643-8.55271 28.3655-8.55271L24.4203-8.55271Q22.8132-8.55271 22.8132-6.94131L22.8132-2.94225Q22.8132-1.39742 24.4203-1.39742ZM35.4398-1.39742L39.3807-1.39742Q40.9794-1.39742 40.9794-2.94225L40.9794-6.94131Q40.9794-8.55271 39.3807-8.55271L35.4398-8.55271Q33.9614-8.55271 33.9614-6.94131L33.9614-2.94225Q33.9614-1.39742 35.4398-1.39742ZM46.5216-1.39742L50.396-1.39742Q52.0654-1.39742 52.0654-2.94225L52.0654-6.94131Q52.0654-8.55271 50.396-8.55271L46.5216-8.55271Q44.9767-8.55271 44.9767-6.94131L44.9767-2.94225Q44.9767-1.39742 46.5216-1.39742Z"/>
  </g>
  <g id="Black-S" transform="matrix(1 0 0 1 2892.53 696)">
   <path d="M25.25 9.03906L56.5 9.03906Q63.6777 9.03906 67.7061 5.01074Q71.7344 0.982422 71.7344-6.19531L71.7344-64.0078Q71.7344-71.1855 67.7061-75.2139Q63.6777-79.2422 56.5-79.2422L25.25-79.2422Q18.0723-79.2422 14.0439-75.2139Q10.0156-71.1855 10.0156-64.0078L10.0156-6.19531Q10.0156 0.982422 14.0439 5.01074Q18.0723 9.03906 25.25 9.03906ZM27.4961-5.12109Q25.9824-5.12109 25.0791-6.02441Q24.1758-6.92773 24.1758-8.44141L24.1758-61.7617Q24.1758-63.2754 25.0791-64.1787Q25.9824-65.082 27.4961-65.082L54.2539-65.082Q55.7676-65.082 56.6709-64.1543Q57.5742-63.2266 57.5742-61.5176L57.5742-8.44141Q57.5742-6.92773 56.6709-6.02441Q55.7676-5.12109 54.2539-5.12109ZM30.084-39.1055L51.7148-39.1055Q54.6445-39.1055 54.6445-42.084L54.6445-59.1738Q54.6445-62.1523 51.7148-62.1523L30.084-62.1523Q27.1055-62.1523 27.1055-59.2227L27.1055-42.0352Q27.1055-39.1055 30.084-39.1055ZM30.0352-27.875L33.9414-27.875Q35.5527-27.875 35.5527-29.3398L35.5527-33.3926Q35.5527-34.8574 33.9414-34.8574L30.0352-34.8574Q28.5703-34.8574 28.5703-33.3926L28.5703-29.3398Q28.5703-27.875 30.0352-27.875ZM38.873-27.875L42.7793-27.875Q44.3906-27.875 44.3906-29.3398L44.3906-33.3926Q44.3906-34.8574 42.7793-34.8574L38.873-34.8574Q37.4082-34.8574 37.4082-33.3926L37.4082-29.3398Q37.4082-27.875 38.873-27.875ZM47.7109-27.875L51.6172-27.875Q53.2285-27.875 53.2285-29.3398L53.2285-33.3926Q53.2285-34.8574 51.6172-34.8574L47.7109-34.8574Q46.2461-34.8574 46.2461-33.3926L46.2461-29.3398Q46.2461-27.875 47.7109-27.875ZM30.0352-18.5977L33.9414-18.5977Q35.5527-18.5977 35.5527-20.0625L35.5527-24.1152Q35.5527-25.5801 33.9414-25.5801L30.0352-25.5801Q28.5703-25.5801 28.5703-24.1152L28.5703-20.0625Q28.5703-18.5977 30.0352-18.5977ZM38.873-18.5977L42.7793-18.5977Q44.3906-18.5977 44.3906-20.0625L44.3906-24.1152Q44.3906-25.5801 42.7793-25.5801L38.873-25.5801Q37.4082-25.5801 37.4082-24.1152L37.4082-20.0625Q37.4082-18.5977 38.873-18.5977ZM47.7109-18.5977L51.6172-18.5977Q53.2285-18.5977 53.2285-20.0625L53.2285-24.1152Q53.2285-25.5801 51.6172-25.5801L47.7109-25.5801Q46.2461-25.5801 46.2461-24.1152L46.2461-20.0625Q46.2461-18.5977 47.7109-18.5977ZM30.0352-9.32031L33.9414-9.32031Q35.5527-9.32031 35.5527-10.7852L35.5527-14.8379Q35.5527-16.3027 33.9414-16.3027L30.0352-16.3027Q28.5703-16.3027 28.5703-14.8379L28.5703-10.7852Q28.5703-9.32031 30.0352-9.32031ZM38.873-9.32031L42.7793-9.32031Q44.3906-9.32031 44.3906-10.7852L44.3906-14.8379Q44.3906-16.3027 42.7793-16.3027L38.873-16.3027Q37.4082-16.3027 37.4082-14.8379L37.4082-10.7852Q37.4082-9.32031 38.873-9.32031ZM47.7109-9.32031L51.6172-9.32031Q53.2285-9.32031 53.2285-10.7852L53.2285-14.8379Q53.2285-16.3027 51.6172-16.3027L47.7109-16.3027Q46.2461-16.3027 46.2461-14.8379L46.2461-10.7852Q46.2461-9.32031 47.7109-9.32031Z"/>
  </g>
  <g id="Heavy-S" transform="matrix(1 0 0 1 2597.48 696)">
   <path d="M24.1782 7.80594L54.2412 7.80594Q60.8312 7.80594 64.6175 4.05997Q68.4038 0.314003 68.4038-6.22988L68.4038-63.9156Q68.4038-70.4595 64.6175-74.2055Q60.8312-77.9514 54.2412-77.9514L24.1782-77.9514Q17.5883-77.9514 13.8019-74.2055Q10.0156-70.4595 10.0156-63.9156L10.0156-6.22988Q10.0156 0.314003 13.8019 4.05997Q17.5883 7.80594 24.1782 7.80594ZM26.1132-4.67164Q24.4497-4.67164 23.4714-5.63834Q22.4932-6.60505 22.4932-8.22244L22.4932-61.923Q22.4932-63.552 23.4714-64.5129Q24.4497-65.4738 26.1132-65.4738L52.3063-65.4738Q53.9698-65.4738 54.948-64.4943Q55.9262-63.5147 55.9262-61.7366L55.9262-8.22244Q55.9262-6.60505 54.948-5.63834Q53.9698-4.67164 52.3063-4.67164ZM28.5512-38.9787L49.9055-38.9787Q52.8582-38.9787 52.8582-41.8996L52.8582-59.4735Q52.8582-62.3943 49.9055-62.3943L28.5512-62.3943Q25.5612-62.3943 25.5612-59.5108L25.5612-41.8623Q25.5612-38.9787 28.5512-38.9787ZM28.3987-27.7367L32.2358-27.7367Q33.824-27.7367 33.824-29.19L33.824-33.1621Q33.824-34.6154 32.2358-34.6154L28.3987-34.6154Q26.9453-34.6154 26.9453-33.1621L26.9453-29.19Q26.9453-27.7367 28.3987-27.7367ZM37.2135-27.7367L41.0622-27.7367Q42.6504-27.7367 42.6504-29.19L42.6504-33.1621Q42.6504-34.6154 41.0622-34.6154L37.2135-34.6154Q35.7717-34.6154 35.7717-33.1621L35.7717-29.19Q35.7717-27.7367 37.2135-27.7367ZM46.0399-27.7367L49.8885-27.7367Q51.4653-27.7367 51.4653-29.19L51.4653-33.1621Q51.4653-34.6154 49.8885-34.6154L46.0399-34.6154Q44.5981-34.6154 44.5981-33.1621L44.5981-29.19Q44.5981-27.7367 46.0399-27.7367ZM28.3987-18.4018L32.2358-18.4018Q33.824-18.4018 33.824-19.8551L33.824-23.8271Q33.824-25.2804 32.2358-25.2804L28.3987-25.2804Q26.9453-25.2804 26.9453-23.8271L26.9453-19.8551Q26.9453-18.4018 28.3987-18.4018ZM37.2135-18.4018L41.0622-18.4018Q42.6504-18.4018 42.6504-19.8551L42.6504-23.8271Q42.6504-25.2804 41.0622-25.2804L37.2135-25.2804Q35.7717-25.2804 35.7717-23.8271L35.7717-19.8551Q35.7717-18.4018 37.2135-18.4018ZM46.0399-18.4018L49.8885-18.4018Q51.4653-18.4018 51.4653-19.8551L51.4653-23.8271Q51.4653-25.2804 49.8885-25.2804L46.0399-25.2804Q44.5981-25.2804 44.5981-23.8271L44.5981-19.8551Q44.5981-18.4018 46.0399-18.4018ZM28.3987-9.06677L32.2358-9.06677Q33.824-9.06677 33.824-10.5086L33.824-14.4922Q33.824-15.9339 32.2358-15.9339L28.3987-15.9339Q26.9453-15.9339 26.9453-14.4922L26.9453-10.5086Q26.9453-9.06677 28.3987-9.06677ZM37.2135-9.06677L41.0622-9.06677Q42.6504-9.06677 42.6504-10.5086L42.6504-14.4922Q42.6504-15.9339 41.0622-15.9339L37.2135-15.9339Q35.7717-15.9339 35.7717-14.4922L35.7717-10.5086Q35.7717-9.06677 37.2135-9.06677ZM46.0399-9.06677L49.8885-9.06677Q51.4653-9.06677 51.4653-10.5086L51.4653-14.4922Q51.4653-15.9339 49.8885-15.9339L46.0399-15.9339Q44.5981-15.9339 44.5981-14.4922L44.5981-10.5086Q44.5981-9.06677 46.0399-9.06677Z"/>
  </g>
  <g id="Bold-S" transform="matrix(1 0 0 1 2302.63 696)">
   <path d="M22.9795 6.42675L51.7149 6.42675Q57.6475 6.42675 61.1631 2.99658Q64.6787-0.433594 64.6787-6.26856L64.6787-63.8125Q64.6787-69.6474 61.1631-73.0777Q57.6475-76.5078 51.7149-76.5078L22.9795-76.5078Q17.0469-76.5078 13.5313-73.0777Q10.0156-69.6474 10.0156-63.8125L10.0156-6.26856Q10.0156-0.433594 13.5313 2.99658Q17.0469 6.42675 22.9795 6.42675ZM24.5664-4.16894Q22.7354-4.16894 21.6734-5.20654Q20.6114-6.24414 20.6114-7.97754L20.6114-62.1035Q20.6114-63.8614 21.6734-64.8867Q22.7354-65.9121 24.5664-65.9121L50.128-65.9121Q51.959-65.9121 53.021-64.8745Q54.083-63.837 54.083-61.9815L54.083-7.97754Q54.083-6.24414 53.021-5.20654Q51.959-4.16894 50.128-4.16894ZM26.8369-38.837L47.8818-38.837Q50.8604-38.837 50.8604-41.6934L50.8604-59.8086Q50.8604-62.665 47.8818-62.665L26.8369-62.665Q23.834-62.665 23.834-59.8331L23.834-41.669Q23.834-38.837 26.8369-38.837ZM26.5684-27.5821L30.3281-27.5821Q31.8906-27.5821 31.8906-29.0224L31.8906-32.9043Q31.8906-34.3447 30.3281-34.3447L26.5684-34.3447Q25.1279-34.3447 25.1279-32.9043L25.1279-29.0224Q25.1279-27.5821 26.5684-27.5821ZM35.3574-27.5821L39.1416-27.5821Q40.7041-27.5821 40.7041-29.0224L40.7041-32.9043Q40.7041-34.3447 39.1416-34.3447L35.3574-34.3447Q33.9414-34.3447 33.9414-32.9043L33.9414-29.0224Q33.9414-27.5821 35.3574-27.5821ZM44.1709-27.5821L47.9551-27.5821Q49.4932-27.5821 49.4932-29.0224L49.4932-32.9043Q49.4932-34.3447 47.9551-34.3447L44.1709-34.3447Q42.7549-34.3447 42.7549-32.9043L42.7549-29.0224Q42.7549-27.5821 44.1709-27.5821ZM26.5684-18.1827L30.3281-18.1827Q31.8906-18.1827 31.8906-19.623L31.8906-23.5049Q31.8906-24.9453 30.3281-24.9453L26.5684-24.9453Q25.1279-24.9453 25.1279-23.5049L25.1279-19.623Q25.1279-18.1827 26.5684-18.1827ZM35.3574-18.1827L39.1416-18.1827Q40.7041-18.1827 40.7041-19.623L40.7041-23.5049Q40.7041-24.9453 39.1416-24.9453L35.3574-24.9453Q33.9414-24.9453 33.9414-23.5049L33.9414-19.623Q33.9414-18.1827 35.3574-18.1827ZM44.1709-18.1827L47.9551-18.1827Q49.4932-18.1827 49.4932-19.623L49.4932-23.5049Q49.4932-24.9453 47.9551-24.9453L44.1709-24.9453Q42.7549-24.9453 42.7549-23.5049L42.7549-19.623Q42.7549-18.1827 44.1709-18.1827ZM26.5684-8.7832L30.3281-8.7832Q31.8906-8.7832 31.8906-10.1992L31.8906-14.1054Q31.8906-15.5215 30.3281-15.5215L26.5684-15.5215Q25.1279-15.5215 25.1279-14.1054L25.1279-10.1992Q25.1279-8.7832 26.5684-8.7832ZM35.3574-8.7832L39.1416-8.7832Q40.7041-8.7832 40.7041-10.1992L40.7041-14.1054Q40.7041-15.5215 39.1416-15.5215L35.3574-15.5215Q33.9414-15.5215 33.9414-14.1054L33.9414-10.1992Q33.9414-8.7832 35.3574-8.7832ZM44.1709-8.7832L47.9551-8.7832Q49.4932-8.7832 49.4932-10.1992L49.4932-14.1054Q49.4932-15.5215 47.9551-15.5215L44.1709-15.5215Q42.7549-15.5215 42.7549-14.1054L42.7549-10.1992Q42.7549-8.7832 44.1709-8.7832Z"/>
  </g>
  <g id="Semibold-S" transform="matrix(1 0 0 1 2007.21 696)">
   <path d="M22.153 5.47588L49.9731 5.47588Q55.4524 5.47588 58.7814 2.26343Q62.1104-0.949024 62.1104-6.29522L62.1104-63.7414Q62.1104-69.0876 58.7814-72.3001Q55.4524-75.5125 49.9731-75.5125L22.153-75.5125Q16.6737-75.5125 13.3446-72.3001Q10.0156-69.0876 10.0156-63.7414L10.0156-6.29522Q10.0156-0.949024 13.3446 2.26343Q16.6737 5.47588 22.153 5.47588ZM23.5-3.82236Q21.5534-3.82236 20.4337-4.90884Q19.3139-5.99531 19.3139-7.80869L19.3139-62.2279Q19.3139-64.0746 20.4337-65.1444Q21.5534-66.2143 23.5-66.2143L48.6261-66.2143Q50.5727-66.2143 51.6924-65.1367Q52.8122-64.0591 52.8122-62.1503L52.8122-7.80869Q52.8122-5.99531 51.6924-4.90884Q50.5727-3.82236 48.6261-3.82236ZM25.655-38.7392L46.4866-38.7392Q49.4829-38.7392 49.4829-41.5512L49.4829-60.0397Q49.4829-62.8516 46.4866-62.8516L25.655-62.8516Q22.6432-62.8516 22.6432-60.0552L22.6432-41.5356Q22.6432-38.7392 25.655-38.7392ZM25.3065-27.4754L29.0129-27.4754Q30.5576-27.4754 30.5576-28.9069L30.5576-32.7266Q30.5576-34.1581 29.0129-34.1581L25.3065-34.1581Q23.8749-34.1581 23.8749-32.7266L23.8749-28.9069Q23.8749-27.4754 25.3065-27.4754ZM34.0777-27.4754L37.8175-27.4754Q39.3622-27.4754 39.3622-28.9069L39.3622-32.7266Q39.3622-34.1581 37.8175-34.1581L34.0777-34.1581Q32.6795-34.1581 32.6795-32.7266L32.6795-28.9069Q32.6795-27.4754 34.0777-27.4754ZM42.8823-27.4754L46.6221-27.4754Q48.1335-27.4754 48.1335-28.9069L48.1335-32.7266Q48.1335-34.1581 46.6221-34.1581L42.8823-34.1581Q41.4841-34.1581 41.4841-32.7266L41.4841-28.9069Q41.4841-27.4754 42.8823-27.4754ZM25.3065-18.0316L29.0129-18.0316Q30.5576-18.0316 30.5576-19.4631L30.5576-23.2827Q30.5576-24.7142 29.0129-24.7142L25.3065-24.7142Q23.8749-24.7142 23.8749-23.2827L23.8749-19.4631Q23.8749-18.0316 25.3065-18.0316ZM34.0777-18.0316L37.8175-18.0316Q39.3622-18.0316 39.3622-19.4631L39.3622-23.2827Q39.3622-24.7142 37.8175-24.7142L34.0777-24.7142Q32.6795-24.7142 32.6795-23.2827L32.6795-19.4631Q32.6795-18.0316 34.0777-18.0316ZM42.8823-18.0316L46.6221-18.0316Q48.1335-18.0316 48.1335-19.4631L48.1335-23.2827Q48.1335-24.7142 46.6221-24.7142L42.8823-24.7142Q41.4841-24.7142 41.4841-23.2827L41.4841-19.4631Q41.4841-18.0316 42.8823-18.0316ZM25.3065-8.58769L29.0129-8.58769Q30.5576-8.58769 30.5576-9.98595L30.5576-13.8388Q30.5576-15.2371 29.0129-15.2371L25.3065-15.2371Q23.8749-15.2371 23.8749-13.8388L23.8749-9.98595Q23.8749-8.58769 25.3065-8.58769ZM34.0777-8.58769L37.8175-8.58769Q39.3622-8.58769 39.3622-9.98595L39.3622-13.8388Q39.3622-15.2371 37.8175-15.2371L34.0777-15.2371Q32.6795-15.2371 32.6795-13.8388L32.6795-9.98595Q32.6795-8.58769 34.0777-8.58769ZM42.8823-8.58769L46.6221-8.58769Q48.1335-8.58769 48.1335-9.98595L48.1335-13.8388Q48.1335-15.2371 46.6221-15.2371L42.8823-15.2371Q41.4841-15.2371 41.4841-13.8388L41.4841-9.98595Q41.4841-8.58769 42.8823-8.58769Z"/>
  </g>
  <g id="Medium-S" transform="matrix(1 0 0 1 1711.47 696)">
   <path d="M21.5264 4.75488L48.6524 4.75488Q53.7881 4.75488 56.9756 1.70752Q60.1631-1.33984 60.1631-6.31543L60.1631-63.6875Q60.1631-68.6631 56.9756-71.7104Q53.7881-74.7578 48.6524-74.7578L21.5264-74.7578Q16.3906-74.7578 13.2032-71.7104Q10.0156-68.6631 10.0156-63.6875L10.0156-6.31543Q10.0156-1.33984 13.2032 1.70752Q16.3906 4.75488 21.5264 4.75488ZM22.6914-3.55957Q20.6572-3.55957 19.4937-4.6831Q18.3301-5.80664 18.3301-7.68066L18.3301-62.3223Q18.3301-64.2364 19.4937-65.3398Q20.6572-66.4434 22.6914-66.4434L47.4873-66.4434Q49.5215-66.4434 50.6851-65.3354Q51.8486-64.2276 51.8486-62.2783L51.8486-7.68066Q51.8486-5.80664 50.6851-4.6831Q49.5215-3.55957 47.4873-3.55957ZM24.7588-38.6651L45.4287-38.6651Q48.4385-38.6651 48.4385-41.4433L48.4385-60.2149Q48.4385-62.9931 45.4287-62.9931L24.7588-62.9931Q21.7402-62.9931 21.7402-60.2237L21.7402-41.4346Q21.7402-38.6651 24.7588-38.6651ZM24.3496-27.3946L28.0156-27.3946Q29.5469-27.3946 29.5469-28.8193L29.5469-32.5918Q29.5469-34.0166 28.0156-34.0166L24.3496-34.0166Q22.9248-34.0166 22.9248-32.5918L22.9248-28.8193Q22.9248-27.3946 24.3496-27.3946ZM33.1074-27.3946L36.8135-27.3946Q38.3447-27.3946 38.3447-28.8193L38.3447-32.5918Q38.3447-34.0166 36.8135-34.0166L33.1074-34.0166Q31.7226-34.0166 31.7226-32.5918L31.7226-28.8193Q31.7226-27.3946 33.1074-27.3946ZM41.9053-27.3946L45.6114-27.3946Q47.1025-27.3946 47.1025-28.8193L47.1025-32.5918Q47.1025-34.0166 45.6114-34.0166L41.9053-34.0166Q40.5205-34.0166 40.5205-32.5918L40.5205-28.8193Q40.5205-27.3946 41.9053-27.3946ZM24.3496-17.917L28.0156-17.917Q29.5469-17.917 29.5469-19.3418L29.5469-23.1142Q29.5469-24.539 28.0156-24.539L24.3496-24.539Q22.9248-24.539 22.9248-23.1142L22.9248-19.3418Q22.9248-17.917 24.3496-17.917ZM33.1074-17.917L36.8135-17.917Q38.3447-17.917 38.3447-19.3418L38.3447-23.1142Q38.3447-24.539 36.8135-24.539L33.1074-24.539Q31.7226-24.539 31.7226-23.1142L31.7226-19.3418Q31.7226-17.917 33.1074-17.917ZM41.9053-17.917L45.6114-17.917Q47.1025-17.917 47.1025-19.3418L47.1025-23.1142Q47.1025-24.539 45.6114-24.539L41.9053-24.539Q40.5205-24.539 40.5205-23.1142L40.5205-19.3418Q40.5205-17.917 41.9053-17.917ZM24.3496-8.43945L28.0156-8.43945Q29.5469-8.43945 29.5469-9.82423L29.5469-13.6367Q29.5469-15.0214 28.0156-15.0214L24.3496-15.0214Q22.9248-15.0214 22.9248-13.6367L22.9248-9.82423Q22.9248-8.43945 24.3496-8.43945ZM33.1074-8.43945L36.8135-8.43945Q38.3447-8.43945 38.3447-9.82423L38.3447-13.6367Q38.3447-15.0214 36.8135-15.0214L33.1074-15.0214Q31.7226-15.0214 31.7226-13.6367L31.7226-9.82423Q31.7226-8.43945 33.1074-8.43945ZM41.9053-8.43945L45.6114-8.43945Q47.1025-8.43945 47.1025-9.82423L47.1025-13.6367Q47.1025-15.0214 45.6114-15.0214L41.9053-15.0214Q40.5205-15.0214 40.5205-13.6367L40.5205-9.82423Q40.5205-8.43945 41.9053-8.43945Z"/>
  </g>
  <g id="Regular-S" transform="matrix(1 0 0 1 1416.03 696)">
   <path d="M20.709 3.81445L46.9297 3.81445Q51.6172 3.81445 54.6201 0.982422Q57.623-1.84961 57.623-6.3418L57.623-63.6172Q57.623-68.1094 54.6201-70.9414Q51.6172-73.7734 46.9297-73.7734L20.709-73.7734Q16.0215-73.7734 13.0186-70.9414Q10.0156-68.1094 10.0156-63.6172L10.0156-6.3418Q10.0156-1.84961 13.0186 0.982422Q16.0215 3.81445 20.709 3.81445ZM21.6367-3.2168Q19.4883-3.2168 18.2676-4.38867Q17.0469-5.56055 17.0469-7.51367L17.0469-62.4453Q17.0469-64.4473 18.2676-65.5947Q19.4883-66.7422 21.6367-66.7422L46.002-66.7422Q48.1504-66.7422 49.3711-65.5947Q50.5918-64.4473 50.5918-62.4453L50.5918-7.51367Q50.5918-5.56055 49.3711-4.38867Q48.1504-3.2168 46.002-3.2168ZM23.5898-38.5684L44.0488-38.5684Q47.0762-38.5684 47.0762-41.3027L47.0762-60.4434Q47.0762-63.1777 44.0488-63.1777L23.5898-63.1777Q20.5625-63.1777 20.5625-60.4434L20.5625-41.3027Q20.5625-38.5684 23.5898-38.5684ZM23.1016-27.2891L26.7148-27.2891Q28.2285-27.2891 28.2285-28.7051L28.2285-32.416Q28.2285-33.832 26.7148-33.832L23.1016-33.832Q21.6855-33.832 21.6855-32.416L21.6855-28.7051Q21.6855-27.2891 23.1016-27.2891ZM31.8418-27.2891L35.5039-27.2891Q37.0176-27.2891 37.0176-28.7051L37.0176-32.416Q37.0176-33.832 35.5039-33.832L31.8418-33.832Q30.4746-33.832 30.4746-32.416L30.4746-28.7051Q30.4746-27.2891 31.8418-27.2891ZM40.6309-27.2891L44.293-27.2891Q45.7578-27.2891 45.7578-28.7051L45.7578-32.416Q45.7578-33.832 44.293-33.832L40.6309-33.832Q39.2637-33.832 39.2637-32.416L39.2637-28.7051Q39.2637-27.2891 40.6309-27.2891ZM23.1016-17.7676L26.7148-17.7676Q28.2285-17.7676 28.2285-19.1836L28.2285-22.8945Q28.2285-24.3105 26.7148-24.3105L23.1016-24.3105Q21.6855-24.3105 21.6855-22.8945L21.6855-19.1836Q21.6855-17.7676 23.1016-17.7676ZM31.8418-17.7676L35.5039-17.7676Q37.0176-17.7676 37.0176-19.1836L37.0176-22.8945Q37.0176-24.3105 35.5039-24.3105L31.8418-24.3105Q30.4746-24.3105 30.4746-22.8945L30.4746-19.1836Q30.4746-17.7676 31.8418-17.7676ZM40.6309-17.7676L44.293-17.7676Q45.7578-17.7676 45.7578-19.1836L45.7578-22.8945Q45.7578-24.3105 44.293-24.3105L40.6309-24.3105Q39.2637-24.3105 39.2637-22.8945L39.2637-19.1836Q39.2637-17.7676 40.6309-17.7676ZM23.1016-8.24609L26.7148-8.24609Q28.2285-8.24609 28.2285-9.61328L28.2285-13.373Q28.2285-14.7402 26.7148-14.7402L23.1016-14.7402Q21.6855-14.7402 21.6855-13.373L21.6855-9.61328Q21.6855-8.24609 23.1016-8.24609ZM31.8418-8.24609L35.5039-8.24609Q37.0176-8.24609 37.0176-9.61328L37.0176-13.373Q37.0176-14.7402 35.5039-14.7402L31.8418-14.7402Q30.4746-14.7402 30.4746-13.373L30.4746-9.61328Q30.4746-8.24609 31.8418-8.24609ZM40.6309-8.24609L44.293-8.24609Q45.7578-8.24609 45.7578-9.61328L45.7578-13.373Q45.7578-14.7402 44.293-14.7402L40.6309-14.7402Q39.2637-14.7402 39.2637-13.373L39.2637-9.61328Q39.2637-8.24609 40.6309-8.24609Z"/>
  </g>
  <g id="Light-S" transform="matrix(1 0 0 1 1120.71 696)">
   <path d="M20.1719 2.67513L44.6673 2.67513Q49.306 2.67513 52.0729 0.0221347Q54.8398-2.63086 54.8398-7.12305L54.8398-62.8359Q54.8398-67.3281 52.0729-69.9811Q49.306-72.6341 44.6673-72.6341L20.1719-72.6341Q15.5495-72.6341 12.7826-69.9811Q10.0156-67.3281 10.0156-62.8359L10.0156-7.12305Q10.0156-2.63086 12.7826 0.0221347Q15.5495 2.67513 20.1719 2.67513ZM20.8555-2.72852Q18.2025-2.72852 16.819-4.07129Q15.4356-5.41406 15.4356-7.93685L15.4356-62.0221Q15.4356-64.5775 16.819-65.904Q18.2025-67.2305 20.8555-67.2305L44-67.2305Q46.653-67.2305 48.0283-65.904Q49.4036-64.5775 49.4036-62.0221L49.4036-7.93685Q49.4036-5.41406 48.0283-4.07129Q46.653-2.72852 44-2.72852ZM22.7109-38.2103L42.1445-38.2103Q45.4649-38.2103 45.4649-41.2376L45.4649-59.9063Q45.4649-62.9336 42.1445-62.9336L22.7109-62.9336Q19.3743-62.9336 19.3743-59.9063L19.3743-41.2376Q19.3743-38.2103 22.7109-38.2103ZM21.8646-27.0449L25.3151-27.0449Q26.7474-27.0449 26.7474-28.3796L26.7474-31.9114Q26.7474-33.2623 25.3151-33.2623L21.8646-33.2623Q20.4974-33.2623 20.4974-31.9114L20.4974-28.3796Q20.4974-27.0449 21.8646-27.0449ZM30.5723-27.0449L34.0553-27.0449Q35.4876-27.0449 35.4876-28.3796L35.4876-31.9114Q35.4876-33.2623 34.0553-33.2623L30.5723-33.2623Q29.2702-33.2623 29.2702-31.9114L29.2702-28.3796Q29.2702-27.0449 30.5723-27.0449ZM39.3288-27.0449L42.7956-27.0449Q44.2116-27.0449 44.2116-28.3796L44.2116-31.9114Q44.2116-33.2623 42.7956-33.2623L39.3288-33.2623Q38.0104-33.2623 38.0104-31.9114L38.0104-28.3796Q38.0104-27.0449 39.3288-27.0449ZM21.8646-17.7188L25.3151-17.7188Q26.7474-17.7188 26.7474-19.0697L26.7474-22.6015Q26.7474-23.9362 25.3151-23.9362L21.8646-23.9362Q20.4974-23.9362 20.4974-22.6015L20.4974-19.0697Q20.4974-17.7188 21.8646-17.7188ZM30.5723-17.7188L34.0553-17.7188Q35.4876-17.7188 35.4876-19.0697L35.4876-22.6015Q35.4876-23.9362 34.0553-23.9362L30.5723-23.9362Q29.2702-23.9362 29.2702-22.6015L29.2702-19.0697Q29.2702-17.7188 30.5723-17.7188ZM39.3288-17.7188L42.7956-17.7188Q44.2116-17.7188 44.2116-19.0697L44.2116-22.6015Q44.2116-23.9362 42.7956-23.9362L39.3288-23.9362Q38.0104-23.9362 38.0104-22.6015L38.0104-19.0697Q38.0104-17.7188 39.3288-17.7188ZM21.8646-8.39258L25.3151-8.39258Q26.7474-8.39258 26.7474-9.71092L26.7474-13.2754Q26.7474-14.61 25.3151-14.61L21.8646-14.61Q20.4974-14.61 20.4974-13.2754L20.4974-9.71092Q20.4974-8.39258 21.8646-8.39258ZM30.5723-8.39258L34.0553-8.39258Q35.4876-8.39258 35.4876-9.71092L35.4876-13.2754Q35.4876-14.61 34.0553-14.61L30.5723-14.61Q29.2702-14.61 29.2702-13.2754L29.2702-9.71092Q29.2702-8.39258 30.5723-8.39258ZM39.3288-8.39258L42.7956-8.39258Q44.2116-8.39258 44.2116-9.71092L44.2116-13.2754Q44.2116-14.61 42.7956-14.61L39.3288-14.61Q38.0104-14.61 38.0104-13.2754L38.0104-9.71092Q38.0104-8.39258 39.3288-8.39258Z"/>
  </g>
  <g id="Thin-S" transform="matrix(1 0 0 1 825.836 696)">
   <path d="M19.4615 1.16828L41.6752 1.16828Q46.2493 1.16828 48.704-1.24792Q51.1588-3.66413 51.1588-8.15632L51.1588-61.8026Q51.1588-66.2948 48.704-68.711Q46.2493-71.1273 41.6752-71.1273L19.4615-71.1273Q14.9252-71.1273 12.4704-68.711Q10.0156-66.2948 10.0156-61.8026L10.0156-8.15632Q10.0156-3.66413 12.4704-1.24792Q14.9252 1.16828 19.4615 1.16828ZM19.8222-2.08272Q16.5019-2.08272 14.9032-3.65152Q13.3044-5.22032 13.3044-8.49653L13.3044-61.4625Q13.3044-64.7497 14.9032-66.313Q16.5019-67.8762 19.8222-67.8762L41.3523-67.8762Q44.6726-67.8762 46.2524-66.313Q47.8322-64.7497 47.8322-61.4625L47.8322-8.49653Q47.8322-5.22032 46.2524-3.65152Q44.6726-2.08272 41.3523-2.08272ZM21.5485-37.7367L39.6259-37.7367Q43.3337-37.7367 43.3337-41.1515L43.3337-59.1959Q43.3337-62.6107 39.6259-62.6107L21.5485-62.6107Q17.8029-62.6107 17.8029-59.1959L17.8029-41.1515Q17.8029-37.7367 21.5485-37.7367ZM20.2286-26.722L23.4638-26.722Q24.7885-26.722 24.7885-27.949L24.7885-31.2441Q24.7885-32.5089 23.4638-32.5089L20.2286-32.5089Q18.926-32.5089 18.926-31.2441L18.926-27.949Q18.926-26.722 20.2286-26.722ZM28.8932-26.722L32.1395-26.722Q33.4641-26.722 33.4641-27.949L33.4641-31.2441Q33.4641-32.5089 32.1395-32.5089L28.8932-32.5089Q27.6772-32.5089 27.6772-31.2441L27.6772-27.949Q27.6772-26.722 28.8932-26.722ZM37.6067-26.722L40.8152-26.722Q42.1665-26.722 42.1665-27.949L42.1665-31.2441Q42.1665-32.5089 40.8152-32.5089L37.6067-32.5089Q36.3529-32.5089 36.3529-31.2441L36.3529-27.949Q36.3529-26.722 37.6067-26.722ZM20.2286-17.6542L23.4638-17.6542Q24.7885-17.6542 24.7885-18.919L24.7885-22.2141Q24.7885-23.4411 23.4638-23.4411L20.2286-23.4411Q18.926-23.4411 18.926-22.2141L18.926-18.919Q18.926-17.6542 20.2286-17.6542ZM28.8932-17.6542L32.1395-17.6542Q33.4641-17.6542 33.4641-18.919L33.4641-22.2141Q33.4641-23.4411 32.1395-23.4411L28.8932-23.4411Q27.6772-23.4411 27.6772-22.2141L27.6772-18.919Q27.6772-17.6542 28.8932-17.6542ZM37.6067-17.6542L40.8152-17.6542Q42.1665-17.6542 42.1665-18.919L42.1665-22.2141Q42.1665-23.4411 40.8152-23.4411L37.6067-23.4411Q36.3529-23.4411 36.3529-22.2141L36.3529-18.919Q36.3529-17.6542 37.6067-17.6542ZM20.2286-8.58632L23.4638-8.58632Q24.7885-8.58632 24.7885-9.84006L24.7885-13.1462Q24.7885-14.4378 23.4638-14.4378L20.2286-14.4378Q18.926-14.4378 18.926-13.1462L18.926-9.84006Q18.926-8.58632 20.2286-8.58632ZM28.8932-8.58632L32.1395-8.58632Q33.4641-8.58632 33.4641-9.84006L33.4641-13.1462Q33.4641-14.4378 32.1395-14.4378L28.8932-14.4378Q27.6772-14.4378 27.6772-13.1462L27.6772-9.84006Q27.6772-8.58632 28.8932-8.58632ZM37.6067-8.58632L40.8152-8.58632Q42.1665-8.58632 42.1665-9.84006L42.1665-13.1462Q42.1665-14.4378 40.8152-14.4378L37.6067-14.4378Q36.3529-14.4378 36.3529-13.1462L36.3529-9.84006Q36.3529-8.58632 37.6067-8.58632Z"/>
  </g>
  <g id="Ultralight-S" transform="matrix(1 0 0 1 530.067 696)">
   <path d="M19.0977 0.396484L40.1426 0.396484Q44.6836 0.396484 46.9785-1.89844Q49.2734-4.19336 49.2734-8.68555L49.2734-61.2734Q49.2734-65.7656 46.9785-68.0605Q44.6836-70.3555 40.1426-70.3555L19.0977-70.3555Q14.6055-70.3555 12.3105-68.0605Q10.0156-65.7656 10.0156-61.2734L10.0156-8.68555Q10.0156-4.19336 12.3105-1.89844Q14.6055 0.396484 19.0977 0.396484ZM19.293-1.75195Q15.6309-1.75195 13.9219-3.43652Q12.2129-5.12109 12.2129-8.7832L12.2129-61.1758Q12.2129-64.8379 13.9219-66.5225Q15.6309-68.207 19.293-68.207L39.9961-68.207Q43.6582-68.207 45.3428-66.5225Q47.0273-64.8379 47.0273-61.1758L47.0273-8.7832Q47.0273-5.12109 45.3428-3.43652Q43.6582-1.75195 39.9961-1.75195ZM20.9531-37.4941L38.3359-37.4941Q42.2422-37.4941 42.2422-41.1074L42.2422-58.832Q42.2422-62.4453 38.3359-62.4453L20.9531-62.4453Q16.998-62.4453 16.998-58.832L16.998-41.1074Q16.998-37.4941 20.9531-37.4941ZM19.3906-26.5566L22.5156-26.5566Q23.7852-26.5566 23.7852-27.7285L23.7852-30.9023Q23.7852-32.123 22.5156-32.123L19.3906-32.123Q18.1211-32.123 18.1211-30.9023L18.1211-27.7285Q18.1211-26.5566 19.3906-26.5566ZM28.0332-26.5566L31.1582-26.5566Q32.4277-26.5566 32.4277-27.7285L32.4277-30.9023Q32.4277-32.123 31.1582-32.123L28.0332-32.123Q26.8613-32.123 26.8613-30.9023L26.8613-27.7285Q26.8613-26.5566 28.0332-26.5566ZM36.7246-26.5566L39.8008-26.5566Q41.1191-26.5566 41.1191-27.7285L41.1191-30.9023Q41.1191-32.123 39.8008-32.123L36.7246-32.123Q35.5039-32.123 35.5039-30.9023L35.5039-27.7285Q35.5039-26.5566 36.7246-26.5566ZM19.3906-17.6211L22.5156-17.6211Q23.7852-17.6211 23.7852-18.8418L23.7852-22.0156Q23.7852-23.1875 22.5156-23.1875L19.3906-23.1875Q18.1211-23.1875 18.1211-22.0156L18.1211-18.8418Q18.1211-17.6211 19.3906-17.6211ZM28.0332-17.6211L31.1582-17.6211Q32.4277-17.6211 32.4277-18.8418L32.4277-22.0156Q32.4277-23.1875 31.1582-23.1875L28.0332-23.1875Q26.8613-23.1875 26.8613-22.0156L26.8613-18.8418Q26.8613-17.6211 28.0332-17.6211ZM36.7246-17.6211L39.8008-17.6211Q41.1191-17.6211 41.1191-18.8418L41.1191-22.0156Q41.1191-23.1875 39.8008-23.1875L36.7246-23.1875Q35.5039-23.1875 35.5039-22.0156L35.5039-18.8418Q35.5039-17.6211 36.7246-17.6211ZM19.3906-8.68555L22.5156-8.68555Q23.7852-8.68555 23.7852-9.9062L23.7852-13.0801Q23.7852-14.3496 22.5156-14.3496L19.3906-14.3496Q18.1211-14.3496 18.1211-13.0801L18.1211-9.9062Q18.1211-8.68555 19.3906-8.68555ZM28.0332-8.68555L31.1582-8.68555Q32.4277-8.68555 32.4277-9.9062L32.4277-13.0801Q32.4277-14.3496 31.1582-14.3496L28.0332-14.3496Q26.8613-14.3496 26.8613-13.0801L26.8613-9.9062Q26.8613-8.68555 28.0332-8.68555ZM36.7246-8.68555L39.8008-8.68555Q41.1191-8.68555 41.1191-9.9062L41.1191-13.0801Q41.1191-14.3496 39.8008-14.3496L36.7246-14.3496Q35.5039-14.3496 35.5039-13.0801L35.5039-9.9062Q35.5039-8.68555 36.7246-8.68555Z"/>
  </g>
 </g>
</svg>
